<?xml version="1.0" encoding="utf-8"?>
<!-- Generator: Adobe Illustrator 24.0.1, SVG Export Plug-In . SVG Version: 6.00 Build 0)  -->
<svg version="1.1" id="Capa_1" xmlns="http://www.w3.org/2000/svg" xmlns:xlink="http://www.w3.org/1999/xlink" x="0px" y="0px"
	 viewBox="0 0 678 523" style="enable-background:new 0 0 678 523;" xml:space="preserve">
<style type="text/css">
	.st0{fill:#FFFFFF;}
	.st1{fill:none;}
	.st2{fill:#091027;}
	.st3{font-family:'Graphie-Regular';}
	.st4{font-size:17px;}
	.st5{font-family:'Graphie-Bold';}
	.st6{font-family:'Graphie-SemiBoldItalic';}
	.st7{font-size:14px;}
	.st8{fill:#70A820;}
	.st9{font-family:'Graphie-ExtraBold';}
	.st10{font-size:55.4535px;}
	.st11{font-size:17.9914px;}
	.st12{font-size:9.2902px;}
	.st13{fill:url(#SVGID_1_);}
	.st14{opacity:0.2;}
	.st15{fill:#D4EFF5;}
	.st16{fill:#0F1229;}
	.st17{fill:#E51730;}
	.st18{fill:#56A428;}
	.st19{fill:#AC090B;}
	.st20{fill:#194D25;}
	.st21{fill:#E31631;}
	.st22{fill:#55A029;}
	.st23{fill-rule:evenodd;clip-rule:evenodd;fill:#0F1229;}
	.st24{fill-rule:evenodd;clip-rule:evenodd;fill:#FFFFFF;}
	.st25{opacity:0.23;}
	.st26{clip-path:url(#SVGID_3_);}
	.st27{opacity:0.63;}
	.st28{opacity:0.15;}
	.st29{opacity:0.1;}
	.st30{opacity:0.25;}
</style>
<rect x="-0.1" y="-0.06" class="st0" width="678.53" height="524.67"/>
<rect x="82.62" y="318.48" class="st1" width="513.09" height="56.95"/>
<text transform="matrix(1 0 0 1 91.6481 330.3778)"><tspan x="0" y="0" class="st2 st3 st4">Por participar con el video de reflexión sobre la videoconferencia:  </tspan><tspan x="-8.37" y="20.4" class="st2 st5 st4">Líderes en contingencia, </tspan><tspan x="181.16" y="20.4" class="st2 st3 st4">impartida por la </tspan><tspan x="307.09" y="20.4" class="st2 st6 st4">Mtra. Blanca Arthur León</tspan><tspan x="33.02" y="40.8" class="st2 st3 st4">En el marco del Congreso Digital &quot;Mi Casa es Mi Escudo&quot; </tspan></text>
<text transform="matrix(1 0 0 1 430.1566 397.515)" class="st2 st3 st7">03 de julio de 2020 </text>
<g>
	<text transform="matrix(1 0 0 1 86.6852 185.161)"><tspan x="0" y="0" class="st8 st9 st10">RECONOCIMIENTO</tspan><tspan x="120.94" y="48" class="st8 st9 st10">ESPECIAL</tspan></text>
</g>
<g>
	<text transform="matrix(1 0 0 1 331.5614 255.2201)" class="st2 st3 st11">a:</text>
</g>
<rect x="137.74" y="92.97" class="st1" width="402.85" height="34.65"/>
<text transform="matrix(1 0 0 1 154.0365 104.868)"><tspan x="0" y="0" class="st2 st3 st4">El Sistema Integral de Educación Media Superior </tspan><tspan x="112.79" y="20.4" class="st2 st3 st4">otorga el presente: </tspan></text>
<g>
	<g>
		<path d="M349.78,419.86c-0.77-1.9-1.53-3.77-2.28-5.64c-0.02,0-0.04-0.01-0.05-0.01c-0.06,0.25-0.11,0.49-0.17,0.74
			c-0.14,0.5-0.27,1-0.43,1.5c-0.28,0.85-0.64,1.67-1.07,2.45c-0.21,0.37-0.34,0.78-0.53,1.17c-0.12,0.25-0.27,0.5-0.42,0.74
			c-0.26,0.43-0.53,0.86-0.81,1.29c-0.06,0.09-0.15,0.17-0.24,0.24c-0.09,0.07-0.19,0.1-0.27-0.01c-0.08-0.11-0.12-0.21,0-0.33
			c0.34-0.34,0.58-0.75,0.81-1.17c0.18-0.34,0.4-0.66,0.57-1c0.26-0.52,0.49-1.07,0.75-1.59c0.64-1.28,1.06-2.64,1.4-4.03
			c0.09-0.35,0.11-0.71,0.15-1.07c0.01-0.1-0.02-0.2-0.04-0.3c-0.19-0.7-0.39-1.39-0.57-2.09c-0.16-0.63-0.3-1.27-0.44-1.91
			c-0.13-0.58-0.27-1.17-0.37-1.76c-0.16-0.91-0.29-1.83-0.42-2.75c-0.09-0.6-0.2-1.2-0.26-1.81c-0.12-1.14-0.26-2.27-0.31-3.41
			c-0.04-0.82-0.01-1.65,0.07-2.47c0.07-0.74,0.21-1.48,0.52-2.16c0.18-0.4,0.43-0.74,0.78-1.01c0.04-0.03,0.09-0.06,0.14-0.09
			c0.54-0.32,0.97-0.21,1.21,0.37c0.15,0.36,0.25,0.76,0.29,1.15c0.07,0.67,0.09,1.36,0.1,2.03c0.01,0.71-0.03,1.42-0.04,2.13
			c0,0.84,0.01,1.68,0.02,2.51c0.01,1.11,0.03,2.22,0.04,3.33c0.01,1.12,0.04,2.24,0.03,3.36c-0.01,1.11-0.06,2.21-0.12,3.32
			c-0.02,0.41-0.08,0.81-0.14,1.21c-0.04,0.33-0.03,0.65,0.08,0.97c0.31,0.87,0.59,1.76,0.92,2.63c0.22,0.59,0.5,1.16,0.76,1.74
			c0.17,0.39,0.36,0.78,0.54,1.17c0.14,0.32,0.2,0.35,0.5,0.18c0.8-0.45,1.59-0.92,2.38-1.37c0.71-0.4,1.42-0.8,2.13-1.2
			c0.37-0.21,0.75-0.42,1.12-0.64c0.08-0.05,0.14-0.14,0.2-0.22c0.1-0.13,0.24-0.18,0.34-0.11c0.1,0.07,0.11,0.24-0.01,0.36
			c-0.15,0.15-0.32,0.29-0.5,0.41c-0.3,0.19-0.62,0.36-0.94,0.55c-0.4,0.23-0.8,0.47-1.2,0.71c-0.67,0.4-1.33,0.8-2,1.19
			c-0.46,0.27-0.92,0.53-1.37,0.8c-0.26,0.16-0.26,0.17-0.13,0.43c0.47,0.98,0.93,1.96,1.42,2.93c0.46,0.91,0.94,1.8,1.44,2.69
			c0.53,0.95,1.08,1.88,1.62,2.82c0.28,0.48,0.57,0.95,0.88,1.41c0.43,0.64,0.89,1.25,1.33,1.88c0.22,0.3,0.42,0.61,0.64,0.92
			c0.52,0.73,1.05,1.44,1.57,2.17c0.82,1.16,1.65,2.32,2.44,3.51c0.6,0.89,1.13,1.83,1.57,2.81c0.17,0.38,0.28,0.79,0.4,1.19
			c0.02,0.05,0,0.12-0.07,0.2c-0.1-0.24-0.19-0.5-0.31-0.73c-0.25-0.49-0.5-0.99-0.78-1.46c-0.37-0.64-0.75-1.29-1.16-1.91
			c-0.59-0.88-1.21-1.75-1.84-2.6c-0.36-0.49-0.77-0.95-1.13-1.44c-0.25-0.33-0.47-0.69-0.71-1.03c-0.54-0.76-1.09-1.5-1.63-2.26
			c-0.76-1.06-1.47-2.14-2.08-3.29c-0.13-0.25-0.31-0.48-0.44-0.72c-0.46-0.84-0.93-1.68-1.38-2.53c-0.4-0.77-0.78-1.56-1.17-2.34
			c-0.32-0.65-0.64-1.29-0.96-1.94c-0.05-0.1-0.11-0.19-0.19-0.33c-0.36,0.23-0.7,0.45-1.05,0.66c-0.24,0.14-0.49,0.27-0.74,0.41
			c-0.65,0.38-1.31,0.76-1.95,1.16c-0.73,0.45-1.45,0.92-2.17,1.38c-0.78,0.5-1.56,0.99-2.34,1.49c-0.58,0.38-1.14,0.76-1.72,1.15
			c-0.06,0.04-0.11,0.08-0.22,0.15c0.44,0.17,0.81,0.26,1.19,0.3c0.34,0.03,0.67,0.07,1.01,0.13c0.21,0.03,0.29,0.13,0.28,0.28
			c-0.01,0.16-0.13,0.25-0.34,0.26c-0.08,0-0.16-0.01-0.24-0.02c-0.67-0.07-1.33-0.03-2,0.03c-0.56,0.05-1.1,0.16-1.63,0.31
			c-0.33,0.09-0.63,0.29-0.93,0.46c-0.17,0.09-0.31,0.22-0.47,0.33c-0.42,0.28-0.85,0.55-1.27,0.83c-0.94,0.64-1.88,1.3-2.82,1.94
			c-0.33,0.22-0.65,0.44-0.98,0.66c-0.22,0.14-0.38,0.31-0.45,0.57c-0.19,0.77-0.38,1.54-0.58,2.3c-0.23,0.83-0.45,1.66-0.71,2.48
			c-0.29,0.92-0.6,1.83-0.93,2.73c-0.22,0.58-0.49,1.14-0.73,1.71c-0.12,0.27-0.22,0.55-0.34,0.81c-0.5,1.14-1.17,2.19-1.87,3.22
			c-0.29,0.43-0.65,0.81-0.97,1.22c-0.22,0.28-0.44,0.57-0.66,0.86c-0.43,0.55-0.82,1.13-1.34,1.61c-0.36,0.34-0.66,0.74-1.01,1.1
			c-0.21,0.22-0.45,0.41-0.69,0.6c-0.34,0.29-0.67,0.57-1.01,0.85c-0.54,0.45-1.11,0.85-1.71,1.23c-0.6,0.38-1.22,0.73-1.9,0.95
			c-0.48,0.16-0.96,0.15-1.43-0.03c-0.38-0.15-0.54-0.43-0.55-0.82c-0.01-0.16-0.02-0.31,0-0.47c0.01-0.06,0.08-0.13,0.14-0.15
			c0.07-0.02,0.15,0.01,0.24,0.02c0,0.17-0.01,0.32,0,0.48c0.02,0.37,0.15,0.5,0.5,0.57c0.49,0.11,0.94-0.03,1.38-0.23
			c1.08-0.49,2.1-1.09,3-1.88c0.58-0.51,1.2-0.96,1.76-1.49c0.82-0.79,1.58-1.65,2.25-2.57c0.57-0.78,1.19-1.51,1.76-2.29
			c0.35-0.48,0.68-0.99,0.98-1.51c0.84-1.45,1.47-3,2.04-4.57c0.2-0.56,0.44-1.12,0.62-1.69c0.2-0.61,0.36-1.24,0.53-1.86
			c0.21-0.76,0.43-1.52,0.63-2.29c0.06-0.22,0.1-0.46,0.16-0.77c-0.16,0.08-0.26,0.12-0.34,0.18c-0.54,0.37-1.08,0.75-1.62,1.11
			c-0.86,0.58-1.73,1.15-2.58,1.74c-0.5,0.34-0.98,0.72-1.48,1.07c-0.17,0.12-0.36,0.23-0.53,0.35c-0.54,0.37-1.07,0.76-1.6,1.13
			c-0.34,0.24-0.7,0.46-1.04,0.7c-0.88,0.61-1.76,1.23-2.65,1.83c-0.85,0.57-1.71,1.14-2.58,1.7c-0.76,0.49-1.52,0.97-2.29,1.45
			c-0.21,0.13-0.44,0.23-0.67,0.32c-0.08,0.03-0.21,0-0.27-0.05c-0.1-0.08-0.09-0.2,0-0.3c0.06-0.07,0.1-0.15,0.17-0.21
			c0.72-0.67,1.42-1.36,2.21-1.96c0.31-0.24,0.6-0.52,0.9-0.78c0.87-0.72,1.74-1.44,2.61-2.17c0.36-0.3,0.71-0.6,1.07-0.89
			c1.01-0.8,2.03-1.59,3.05-2.37c0.56-0.43,1.13-0.86,1.71-1.27c0.56-0.4,1.13-0.79,1.7-1.17c0.62-0.42,1.24-0.83,1.86-1.24
			c0.15-0.1,0.31-0.18,0.47-0.27c0.07-0.04,0.15-0.06,0.21-0.11c0.54-0.45,1.22-0.68,1.8-1.07c0.02-0.01,0.04-0.02,0.06-0.03
			c0.31-0.17,0.47-0.4,0.56-0.77c0.26-1.08,0.42-2.17,0.62-3.26c0.14-0.76,0.26-1.51,0.38-2.27c0.08-0.49,0.15-0.98,0.21-1.47
			c0.01-0.09-0.03-0.2-0.08-0.28c-0.27-0.51-0.56-1.01-0.81-1.53c-0.37-0.75-0.68-1.53-0.81-2.37c-0.12-0.72-0.08-1.44-0.01-2.16
			c0.04-0.37,0.19-0.7,0.48-0.95c0.22-0.19,0.5-0.24,0.75-0.1c0.33,0.19,0.58,0.46,0.74,0.82c0.08,0.19,0.17,0.37,0.24,0.56
			c0.27,0.67,0.32,1.36,0.26,2.07c-0.05,0.61-0.1,1.21-0.15,1.82c-0.04,0.47-0.08,0.95-0.14,1.42c-0.03,0.28,0.02,0.51,0.19,0.73
			c0.26,0.33,0.48,0.69,0.77,0.99c0.71,0.73,1.44,1.43,2.4,1.85c0.62,0.27,1.26,0.5,1.92,0.66c0.11,0.03,0.22,0.06,0.32,0.11
			c0.3,0.15,0.56,0.07,0.82-0.11c0.59-0.4,1.18-0.8,1.78-1.18c0.63-0.4,1.27-0.79,1.89-1.19c0.53-0.34,1.04-0.72,1.57-1.06
			c0.57-0.37,1.16-0.71,1.74-1.06c0.98-0.58,1.97-1.16,2.95-1.74C349.56,420.01,349.66,419.94,349.78,419.86z M347.24,412.1
			c0.03,0,0.06,0,0.1,0c0.03-0.17,0.08-0.35,0.09-0.52c0.05-0.8,0.1-1.6,0.12-2.4c0.02-0.8,0.02-1.6,0.02-2.41
			c0-1.47,0-2.94-0.01-4.41c0-0.52,0-1.04-0.01-1.56c0-0.87,0-1.74-0.01-2.61c0-0.99,0.05-1.99-0.08-2.98
			c-0.04-0.31-0.13-0.62-0.22-0.92c-0.05-0.17-0.13-0.33-0.21-0.49c-0.07-0.14-0.17-0.17-0.34-0.11c-0.56,0.19-0.84,0.61-1.03,1.14
			c-0.34,0.95-0.47,1.94-0.48,2.93c-0.01,0.89,0.03,1.79,0.09,2.68c0.06,0.94,0.15,1.87,0.27,2.8c0.18,1.36,0.39,2.71,0.61,4.06
			c0.11,0.67,0.25,1.33,0.39,1.99c0.15,0.68,0.33,1.36,0.5,2.04C347.11,411.57,347.17,411.83,347.24,412.1z M338.58,426.9
			c-0.16-0.06-0.26-0.1-0.36-0.14c-0.65-0.23-1.32-0.42-1.94-0.7c-1.06-0.47-1.89-1.25-2.66-2.11c-0.21-0.24-0.42-0.49-0.66-0.77
			c-0.04,0.29-0.08,0.52-0.12,0.75c-0.12,0.67-0.26,1.33-0.37,2c-0.17,1.01-0.32,2.03-0.49,3.05c-0.05,0.34-0.12,0.68-0.19,1.05
			c0.59-0.27,1.13-0.52,1.67-0.76c0.85-0.39,1.71-0.76,2.6-1.07c0.52-0.18,1.07-0.3,1.53-0.64
			C337.89,427.33,338.22,427.14,338.58,426.9z M315.07,442.76c0.01,0.02,0.03,0.04,0.04,0.06c0.39-0.24,0.79-0.46,1.17-0.71
			c0.46-0.29,0.9-0.61,1.35-0.91c0.75-0.5,1.51-1,2.26-1.51c0.75-0.51,1.49-1.03,2.23-1.54c0.76-0.53,1.54-1.03,2.28-1.58
			c0.56-0.42,1.13-0.83,1.72-1.21c0.83-0.54,1.64-1.12,2.46-1.67c0.49-0.33,0.98-0.65,1.46-0.98c0.26-0.18,0.51-0.38,0.76-0.57
			c0.03-0.03,0.05-0.07,0.07-0.11c0.16-0.35,0.15-0.74,0.26-1.16c-0.12,0.05-0.17,0.07-0.22,0.1c-0.47,0.27-0.94,0.53-1.41,0.8
			c-0.45,0.26-0.9,0.51-1.34,0.79c-0.48,0.31-0.95,0.65-1.42,0.97c-0.7,0.48-1.4,0.96-2.08,1.45c-0.41,0.3-0.81,0.61-1.21,0.92
			c-0.75,0.57-1.5,1.12-2.24,1.7c-0.63,0.5-1.25,1.01-1.86,1.53c-0.62,0.51-1.22,1.04-1.84,1.55c-0.55,0.46-1.1,0.91-1.64,1.36
			C315.6,442.28,315.34,442.52,315.07,442.76z M332.66,421.78c0.03-0.01,0.06-0.02,0.08-0.02c0.01-0.1,0.03-0.2,0.04-0.3
			c0.03-0.33,0.06-0.65,0.09-0.98c0.02-0.21,0.04-0.43,0.06-0.64c0.01-0.2,0.01-0.41,0.03-0.61c0.06-0.6,0.1-1.2-0.05-1.79
			c-0.16-0.64-0.36-1.27-0.98-1.63c-0.12,0.05-0.27,0.07-0.36,0.15c-0.09,0.09-0.16,0.23-0.19,0.35c-0.06,0.24-0.11,0.49-0.1,0.74
			c0.02,0.56,0.06,1.13,0.14,1.69c0.12,0.8,0.5,1.51,0.82,2.24C332.35,421.26,332.52,421.52,332.66,421.78z M331.47,431.7
			c1.41-0.96,2.8-1.9,4.18-2.84c0.05-0.04,0.1-0.09,0.15-0.13c0.01-0.01,0-0.02,0-0.03c0-0.01-0.01-0.02-0.03-0.04
			c-0.13,0.06-0.27,0.13-0.41,0.19c-1.02,0.45-2.05,0.9-3.06,1.36c-0.61,0.28-0.6,0.29-0.79,0.94c-0.04,0.13-0.05,0.27-0.07,0.4
			C331.43,431.58,331.45,431.63,331.47,431.7z M339.66,427.22c-0.41-0.17-0.5-0.15-0.77,0.12
			C339.15,427.31,339.36,427.27,339.66,427.22z"/>
		<path d="M364.72,439.69c-0.02-0.21,0.04-0.39,0.26-0.51c0.02-0.01,0.04-0.02,0.05-0.04c0.07-0.09,0.11-0.26,0.27-0.12
			c0.1,0.09,0.1,0.35,0,0.43c-0.16,0.11-0.24,0.25-0.29,0.43c-0.02,0.06-0.13,0.09-0.2,0.13c-0.03-0.06-0.06-0.13-0.09-0.19
			C364.71,439.79,364.72,439.75,364.72,439.69z"/>
		<path d="M328.46,409.29c-0.07,0.04-0.12,0.08-0.14,0.07c-0.05-0.03-0.08-0.09-0.11-0.13c0.04-0.02,0.08-0.05,0.11-0.04
			C328.36,409.2,328.39,409.24,328.46,409.29z"/>
		<path d="M318.04,434.67c0,0.1,0,0.17,0,0.25C317.94,434.8,317.94,434.8,318.04,434.67z"/>
	</g>
	<text transform="matrix(1 0 0 1 271.4803 468.8136)"><tspan x="0" y="0" class="st2 st3 st12">Lic. Víctor Fernel Guzmán Arvizu</tspan><tspan x="32.72" y="11.15" class="st2 st5 st12">Director General</tspan><tspan x="-29.45" y="22.3" class="st2 st5 st12">Sistema Integral de Educación Media Superior</tspan></text>
</g>
<linearGradient id="SVGID_1_" gradientUnits="userSpaceOnUse" x1="-0.1017" y1="516.3761" x2="678.4295" y2="516.3761">
	<stop  offset="0" style="stop-color:#091027"/>
	<stop  offset="1" style="stop-color:#5DAD22"/>
</linearGradient>
<rect x="-0.1" y="508.5" class="st13" width="678.53" height="15.76"/>
<g class="st14">
	<path class="st15" d="M235.76,23.2c0,1.05,0.83,1.91,1.87,1.94l0.12,0.8c-0.54,0.13-1.03,0.37-1.46,0.7l-0.77-0.85
		c0.03-0.09,0.05-0.18,0.05-0.27c0-0.44-0.36-0.8-0.8-0.8c-0.44,0-0.8,0.36-0.8,0.8c0,0.44,0.36,0.8,0.8,0.8
		c0.07,0,0.14-0.01,0.2-0.03l0.77,0.85c-0.59,0.64-0.97,1.46-1.06,2.38h-0.72c-0.16-0.57-0.68-0.99-1.3-0.99
		c-0.75,0-1.36,0.61-1.36,1.36c0,0.75,0.61,1.36,1.36,1.36c0.62,0,1.14-0.42,1.3-0.99h0.72c0.06,0.65,0.27,1.26,0.61,1.79l-0.9,0.68
		c-0.03-0.01-0.06-0.01-0.1-0.01c-0.3,0-0.55,0.25-0.55,0.55s0.25,0.55,0.55,0.55c0.29,0,0.52-0.22,0.54-0.5l0.9-0.68
		c0.39,0.43,0.88,0.78,1.42,1.01l-0.28,0.87c-0.53,0.04-0.94,0.47-0.94,1.01c0,0.56,0.45,1.01,1.01,1.01s1.01-0.45,1.01-1.01
		c0-0.32-0.15-0.6-0.38-0.78l0.28-0.88c0.28,0.06,0.57,0.1,0.87,0.1c0.47,0,0.92-0.08,1.34-0.23l0.4,0.89c-0.54,0.38-0.9,1-0.9,1.71
		c0,1.15,0.93,2.08,2.08,2.08c1.15,0,2.08-0.93,2.08-2.08c0-1.15-0.93-2.08-2.08-2.08c-0.18,0-0.35,0.02-0.51,0.07l-0.4-0.89
		c0.58-0.33,1.07-0.8,1.42-1.36l1.13,0.58c0.01,0.42,0.35,0.75,0.77,0.75c0.43,0,0.77-0.35,0.77-0.77c0-0.43-0.35-0.77-0.77-0.77
		c-0.16,0-0.31,0.05-0.44,0.14l-1.13-0.58c0.19-0.47,0.29-0.98,0.29-1.51c0-0.12-0.01-0.23-0.02-0.34l0.84-0.15
		c0.24,0.54,0.78,0.92,1.41,0.92c0.85,0,1.54-0.69,1.54-1.54c0-0.85-0.69-1.54-1.54-1.54c-0.82,0-1.48,0.64-1.54,1.44l-0.84,0.15
		c-0.23-0.83-0.71-1.56-1.36-2.09l0.47-0.7c0.14,0.05,0.29,0.08,0.45,0.08c0.78,0,1.41-0.63,1.41-1.41c0-0.78-0.63-1.41-1.41-1.41
		s-1.41,0.63-1.41,1.41c0,0.35,0.13,0.68,0.35,0.93l-0.47,0.7c-0.58-0.32-1.24-0.5-1.95-0.5c-0.09,0-0.17,0.01-0.25,0.01l-0.12-0.8
		c0.75-0.27,1.29-0.99,1.29-1.83c0-1.08-0.87-1.95-1.95-1.95C236.63,21.25,235.76,22.13,235.76,23.2z"/>
</g>
<rect x="-0.1" y="-0.06" class="st16" width="678.53" height="63.11"/>
<g>
	<polygon class="st17" points="36.46,19.83 32.13,19.83 29.3,36.97 46.54,36.97 47.25,32.71 42.94,32.71 43.65,28.4 39.34,28.4 
		38.63,32.68 34.32,32.68 	"/>
	<polygon class="st18" points="47.25,32.71 51.58,32.71 54.41,15.57 37.17,15.57 36.46,19.83 40.77,19.83 40.06,24.14 44.37,24.14 
		45.08,19.86 49.39,19.86 	"/>
	<polygon class="st19" points="29.3,36.97 32.13,19.83 29.48,22.01 26.79,39.14 44.03,39.14 46.54,36.98 	"/>
	<polygon class="st20" points="36.47,19.83 37.17,15.57 34.52,17.74 34.19,19.83 	"/>
	<polygon class="st20" points="47.25,32.71 46.89,34.88 49.07,34.88 51.58,32.71 	"/>
	<polygon class="st0" points="59.17,24.09 61.83,24.09 61.83,27.19 64.29,27.19 64.29,24.09 66.96,24.09 66.96,32.48 64.29,32.48 
		64.29,29.25 61.83,29.25 61.83,32.48 59.17,32.48 	"/>
	<rect x="68.29" y="24.09" class="st0" width="2.69" height="8.39"/>
	<g>
		<path class="st0" d="M72.51,24.09h3.2c3,0,4.53,1.43,4.53,4.09v0.08c0,2.68-1.57,4.21-4.53,4.21h-3.2V24.09z M75.62,30.44
			c1.3,0,1.85-0.64,1.85-2.11v-0.1c0-1.54-0.57-2.1-1.87-2.1h-0.43v4.3H75.62z"/>
		<path class="st0" d="M83.26,24.18h3.44l2.63,8.39h-2.81l-0.39-1.39h-2.65l-0.38,1.39h-2.47L83.26,24.18z M83.98,29.36h1.65
			l-0.82-3.04L83.98,29.36z"/>
		<polygon class="st0" points="90.6,24.09 93.27,24.09 93.27,30.42 96.32,30.42 96.32,32.48 90.6,32.48 		"/>
		<path class="st0" d="M97.34,28.34v-0.09c0-2.57,1.91-4.28,4.46-4.28c2.04,0,3.85,0.93,3.99,3.17h-2.63
			c-0.09-0.69-0.52-1.08-1.35-1.08c-1.06,0-1.7,0.82-1.7,2.24v0.09c0,1.23,0.41,2.23,1.77,2.23c1.06,0,1.45-0.52,1.51-1.07h-1.43
			V27.8h4.02v1.08c0,2.09-1.37,3.75-4.19,3.75C98.9,32.63,97.34,30.86,97.34,28.34"/>
		<path class="st0" d="M107.02,28.34v-0.09c0-2.59,1.86-4.28,4.23-4.28c2.44,0,4.25,1.56,4.25,4.21v0.09c0,2.62-1.69,4.36-4.3,4.36
			C108.61,32.63,107.02,30.88,107.02,28.34 M112.89,28.33v-0.1c0-1.42-0.64-2.19-1.64-2.19c-0.98,0-1.61,0.76-1.61,2.19v0.1
			c0,1.43,0.63,2.22,1.63,2.22C112.26,30.54,112.89,29.72,112.89,28.33"/>
		<path class="st0" d="M72.37,38.17v-0.05c0-1.14,0.78-1.83,1.74-1.83c0.78,0,1.5,0.36,1.58,1.37h-0.88c-0.06-0.41-0.3-0.6-0.68-0.6
			c-0.48,0-0.81,0.38-0.81,1.05v0.05c0,0.71,0.3,1.07,0.82,1.07c0.37,0,0.67-0.23,0.72-0.68h0.84c-0.05,0.84-0.63,1.41-1.61,1.41
			C73.11,39.96,72.37,39.32,72.37,38.17"/>
		<path class="st0" d="M76.3,36.36h0.93v0.67c0.21-0.47,0.54-0.72,1.09-0.73v0.91c-0.69-0.01-1.09,0.23-1.09,0.9v1.76H76.3V36.36z"
			/>
		<path class="st0" d="M78.66,38.17v-0.05c0-1.11,0.75-1.83,1.73-1.83c0.87,0,1.64,0.53,1.64,1.79v0.27h-2.43
			c0.02,0.59,0.33,0.92,0.84,0.92c0.43,0,0.64-0.19,0.7-0.49h0.88c-0.11,0.76-0.69,1.19-1.61,1.19
			C79.4,39.96,78.66,39.29,78.66,38.17 M81.13,37.74c-0.03-0.53-0.29-0.79-0.73-0.79c-0.42,0-0.7,0.29-0.77,0.79H81.13z"/>
		<path class="st0" d="M82.44,38.17v-0.05c0-1.14,0.78-1.83,1.74-1.83c0.78,0,1.5,0.36,1.58,1.37h-0.88c-0.06-0.41-0.3-0.6-0.68-0.6
			c-0.48,0-0.8,0.38-0.8,1.05v0.05c0,0.71,0.3,1.07,0.82,1.07c0.37,0,0.68-0.23,0.72-0.68h0.84c-0.05,0.84-0.63,1.41-1.61,1.41
			C83.19,39.96,82.44,39.32,82.44,38.17"/>
		<path class="st0" d="M86.17,38.17v-0.05c0-1.11,0.76-1.83,1.73-1.83c0.87,0,1.64,0.53,1.64,1.79v0.27h-2.43
			c0.02,0.59,0.33,0.92,0.84,0.92c0.43,0,0.64-0.19,0.7-0.49h0.88c-0.11,0.76-0.69,1.19-1.61,1.19
			C86.91,39.96,86.17,39.29,86.17,38.17 M88.64,37.74c-0.03-0.53-0.29-0.79-0.74-0.79c-0.42,0-0.7,0.29-0.77,0.79H88.64z"/>
		<path class="st18" d="M91.38,38.17v-0.05c0-1.14,0.78-1.83,1.74-1.83c0.78,0,1.5,0.36,1.58,1.37h-0.88
			c-0.06-0.41-0.3-0.6-0.68-0.6c-0.48,0-0.8,0.38-0.8,1.05v0.05c0,0.71,0.3,1.07,0.82,1.07c0.37,0,0.68-0.23,0.72-0.68h0.84
			c-0.05,0.84-0.63,1.41-1.61,1.41C92.13,39.96,91.38,39.32,91.38,38.17"/>
		<path class="st18" d="M95.38,38.16v-0.05c0-1.1,0.77-1.83,1.78-1.83c1.01,0,1.77,0.71,1.77,1.81v0.05c0,1.11-0.76,1.82-1.78,1.82
			C96.15,39.96,95.38,39.26,95.38,38.16 M97.98,38.15V38.1c0-0.67-0.3-1.08-0.82-1.08c-0.52,0-0.82,0.39-0.82,1.06v0.05
			c0,0.67,0.29,1.08,0.82,1.08C97.68,39.22,97.98,38.81,97.98,38.15"/>
		<path class="st18" d="M99.58,36.36h0.93v0.56c0.17-0.35,0.54-0.64,1.1-0.64c0.66,0,1.14,0.42,1.14,1.36v2.24h-0.94v-2.1
			c0-0.48-0.18-0.71-0.59-0.71c-0.4,0-0.7,0.26-0.7,0.78v2.03h-0.93V36.36z"/>
		<path class="st18" d="M103.83,38.84v-1.79h-0.43v-0.69h0.43V35.6h0.93v0.76h0.71v0.69h-0.71v1.7c0,0.28,0.13,0.42,0.37,0.42
			c0.14,0,0.24-0.02,0.36-0.07v0.75c-0.13,0.05-0.32,0.09-0.57,0.09C104.21,39.95,103.83,39.58,103.83,38.84"/>
		<path class="st18" d="M106.14,35.35c0-0.3,0.23-0.53,0.53-0.53c0.3,0,0.54,0.23,0.54,0.53c0,0.3-0.23,0.53-0.54,0.53
			C106.37,35.88,106.14,35.65,106.14,35.35 M106.21,36.36h0.93v3.52h-0.93V36.36z"/>
		<path class="st18" d="M107.88,39.96h0.93c0.06,0.31,0.27,0.51,0.75,0.51c0.57,0,0.85-0.31,0.85-0.86v-0.53
			c-0.19,0.34-0.59,0.65-1.08,0.65c-0.82,0-1.47-0.64-1.47-1.68V38c0-1.01,0.64-1.72,1.48-1.72c0.55,0,0.88,0.25,1.07,0.61v-0.53
			h0.93v3.25c-0.01,1.04-0.67,1.58-1.78,1.58C108.47,41.18,107.97,40.69,107.88,39.96 M110.43,38.03v-0.05c0-0.6-0.3-0.96-0.81-0.96
			c-0.52,0-0.81,0.39-0.81,0.97v0.05c0,0.58,0.33,0.95,0.79,0.95C110.09,38.99,110.43,38.63,110.43,38.03"/>
		<path class="st18" d="M111.99,38.16v-0.05c0-1.1,0.76-1.83,1.78-1.83c1.01,0,1.77,0.71,1.77,1.81v0.05c0,1.11-0.77,1.82-1.78,1.82
			C112.75,39.96,111.99,39.26,111.99,38.16 M114.59,38.15V38.1c0-0.67-0.3-1.08-0.83-1.08c-0.51,0-0.82,0.39-0.82,1.06v0.05
			c0,0.67,0.29,1.08,0.82,1.08C114.28,39.22,114.59,38.81,114.59,38.15"/>
		<polygon class="st0" points="36.46,19.88 40.75,19.88 40.04,24.17 44.33,24.17 45.04,19.91 49.34,19.91 47.2,32.71 42.91,32.71 
			43.62,28.42 39.32,28.42 38.62,32.68 34.32,32.68 		"/>
	</g>
</g>
<g>
	<path class="st0" d="M339.31-0.06h-0.29H230.79l15.78,32.71c6.57,13.61,20.25,22.24,35.26,22.24h57.19h0.29h57.19
		c15,0,28.69-8.64,35.26-22.24l15.78-32.71H339.31z"/>
	<g>
		<g>
			<path class="st0" d="M290.31,41.73l4.53,2.14l4.53-2.14c2.31-1.1,4.26-2.82,5.63-4.98c1.37-2.16,2.09-4.66,2.09-7.22l-0.01-13.85
				c-3.78-1.56-8-2.39-12.24-2.39c-0.01,0-0.02,0-0.02,0c-4.25,0-8.48,0.83-12.26,2.4l0.01,13.85c0,2.56,0.73,5.06,2.1,7.22
				C286.04,38.92,287.99,40.64,290.31,41.73L290.31,41.73z"/>
			<path class="st16" d="M306.23,16.8L306.23,16.8c0,0-14.82-3.42-22.49,8.17l0,4.29c0,2.34,0.66,4.62,1.92,6.59
				c1.02,1.61,2.4,2.96,4.03,3.94c13.3-2.05,16.12-8.98,16.55-10.35c0-0.07,0-0.13,0-0.2L306.23,16.8z"/>
			<g>
				<g>
					<path class="st16" d="M294.97,45.29l-5.08-2.4c-2.54-1.2-4.67-3.08-6.17-5.45c-1.5-2.37-2.3-5.1-2.3-7.91l-0.01-14.7l0.39-0.17
						c4.04-1.74,8.59-2.67,13.15-2.67c4.57,0,9.12,0.91,13.16,2.65l0.39,0.17l0.01,14.7c0,2.8-0.79,5.54-2.29,7.91
						c-1.5,2.37-3.63,4.26-6.17,5.46L294.97,45.29z M290.43,41.73l4.53,2.14l4.53-2.14c2.31-1.1,4.26-2.82,5.63-4.98
						c1.37-2.16,2.09-4.66,2.09-7.22l-0.01-13.85c-3.78-1.56-8-2.39-12.24-2.39c-0.01,0-0.02,0-0.02,0c-4.25,0-8.48,0.83-12.26,2.4
						l0.01,13.85c0,2.56,0.73,5.06,2.1,7.22C286.17,38.92,288.12,40.64,290.43,41.73L290.43,41.73z"/>
				</g>
			</g>
			<g>
				<polygon class="st0" points="292.15,24.46 289.91,24.46 288.44,33.36 297.38,33.36 297.75,31.15 295.51,31.15 295.89,28.91 
					293.65,28.91 293.28,31.13 291.04,31.13 				"/>
				<polygon class="st0" points="297.75,31.15 300,31.15 301.47,22.25 292.52,22.25 292.15,24.46 294.39,24.46 294.02,26.7 
					296.26,26.7 296.63,24.48 298.87,24.48 				"/>
			</g>
			<g>
				<path class="st0" d="M283.73,23.95l-0.03,1.07c7.67-11.65,22.53-8.22,22.53-8.22S291.4,12.3,283.73,23.95z"/>
				<path class="st21" d="M294.98,14.53c-3.91,0-7.79,0.79-11.25,2.28c0,0,0,0.42,0,1.05c0,1.67,0,4.85,0,6.08
					c7.67-11.65,22.49-7.15,22.49-7.15C302.77,15.31,298.89,14.53,294.98,14.53z"/>
			</g>
			<g>
				<path class="st0" d="M306.29,29.42c0-0.07,0.01-0.14,0.01-0.21c0,0-1.84,8.34-16.68,10.6l1.15,0.6
					C304.39,38.33,306.1,30.66,306.29,29.42z"/>
				<polygon class="st0" points="291.13,40.59 291.15,40.59 290.9,40.47 				"/>
				<polygon class="st22" points="290.77,40.41 290.9,40.47 290.78,40.41 				"/>
				<path class="st22" d="M306.29,29.42c-0.19,1.24-1.89,8.91-15.51,10.99l0.12,0.06l0.25,0.12l3.89,1.81l4.22-2
					c2.11-1,3.89-2.57,5.14-4.55c1.25-1.98,1.91-4.26,1.91-6.6C306.31,29.25,306.3,29.31,306.29,29.42z"/>
			</g>
		</g>
		<rect x="311.2" y="34.37" class="st23" width="85.44" height="10.56"/>
		<g>
			<path class="st16" d="M320.59,31.18l-0.03-4.39l-2.09,3.53h-1.43l-2.09-3.37v4.24h-2.96v-9.64h2.67l3.14,5.14l3.06-5.14h2.67
				l0.03,9.64H320.59z"/>
			<path class="st16" d="M325.12,21.54h3.25v9.64h-3.25V21.54z"/>
			<path class="st16" d="M333.69,26.36c0-2.96,2.27-5.04,5.37-5.04c1.89,0,3.37,0.69,4.33,1.93l-2.05,1.83
				c-0.56-0.72-1.24-1.13-2.11-1.13c-1.35,0-2.26,0.94-2.26,2.41c0,1.47,0.91,2.41,2.26,2.41c0.87,0,1.54-0.41,2.11-1.13l2.05,1.83
				c-0.95,1.24-2.44,1.93-4.33,1.93C335.96,31.4,333.69,29.32,333.69,26.36z"/>
			<path class="st16" d="M350.75,29.5h-3.66l-0.65,1.68h-3.31l4.21-9.64h3.2l4.21,9.64h-3.36L350.75,29.5z M349.86,27.16l-0.94-2.42
				l-0.94,2.42H349.86z"/>
			<path class="st16" d="M354.68,30.41l1.05-2.37c0.91,0.54,2.12,0.88,3.18,0.88c0.92,0,1.25-0.19,1.25-0.52
				c0-1.21-5.33-0.23-5.33-3.83c0-1.79,1.5-3.25,4.49-3.25c1.29,0,2.63,0.28,3.64,0.84l-0.98,2.36c-0.95-0.48-1.85-0.72-2.69-0.72
				c-0.95,0-1.25,0.28-1.25,0.61c0,1.16,5.33,0.19,5.33,3.75c0,1.76-1.5,3.25-4.49,3.25C357.27,31.4,355.64,31,354.68,30.41z"/>
			<path class="st16" d="M370.91,29.5h-3.66l-0.65,1.68h-3.31l4.21-9.64h3.2l4.21,9.64h-3.36L370.91,29.5z M370.01,27.16l-0.94-2.42
				l-0.94,2.42H370.01z"/>
			<path class="st16" d="M387.59,28.73v2.45h-8.02v-9.64h7.84v2.45h-4.64v1.13h4.08v2.34h-4.08v1.27H387.59z"/>
			<path class="st16" d="M388.23,30.41l1.05-2.37c0.91,0.54,2.12,0.88,3.18,0.88c0.92,0,1.25-0.19,1.25-0.52
				c0-1.21-5.33-0.23-5.33-3.83c0-1.79,1.5-3.25,4.49-3.25c1.29,0,2.63,0.28,3.64,0.84l-0.98,2.36c-0.95-0.48-1.85-0.72-2.69-0.72
				c-0.95,0-1.25,0.28-1.25,0.61c0,1.16,5.33,0.19,5.33,3.75c0,1.76-1.5,3.25-4.49,3.25C390.82,31.4,389.2,31,388.23,30.41z"/>
		</g>
		<g>
			<path class="st0" d="M319.41,43.28l-0.02-3.39l-1.62,2.72h-1.11L315.05,40v3.28h-2.29v-7.45h2.06l2.43,3.97l2.36-3.97h2.06
				l0.02,7.45H319.41z"/>
			<path class="st0" d="M322.92,35.83h2.51v7.45h-2.51V35.83z"/>
			<path class="st0" d="M336.03,41.38v1.89h-6.19v-7.45h6.05v1.89h-3.59v0.87h3.15v1.81h-3.15v0.98H336.03z"/>
			<path class="st0" d="M336.53,42.68l0.81-1.83c0.7,0.42,1.64,0.68,2.46,0.68c0.71,0,0.97-0.15,0.97-0.4
				c0-0.94-4.12-0.18-4.12-2.96c0-1.38,1.16-2.51,3.47-2.51c1,0,2.03,0.21,2.81,0.65l-0.76,1.82c-0.73-0.37-1.43-0.55-2.07-0.55
				c-0.73,0-0.97,0.21-0.97,0.47c0,0.89,4.12,0.15,4.12,2.89c0,1.36-1.16,2.51-3.47,2.51C338.53,43.45,337.27,43.14,336.53,42.68z"
				/>
			<path class="st0" d="M343.69,39.55c0-2.29,1.76-3.89,4.15-3.89c1.46,0,2.61,0.53,3.34,1.49l-1.59,1.42
				c-0.44-0.55-0.96-0.87-1.63-0.87c-1.04,0-1.75,0.72-1.75,1.86c0,1.14,0.7,1.86,1.75,1.86c0.67,0,1.19-0.32,1.63-0.87l1.59,1.42
				c-0.73,0.96-1.88,1.49-3.34,1.49C345.45,43.45,343.69,41.84,343.69,39.55z"/>
			<path class="st0" d="M351.74,39.92v-4.1h2.51v4.02c0,1.14,0.44,1.56,1.14,1.56c0.7,0,1.14-0.43,1.14-1.56v-4.02h2.47v4.1
				c0,2.23-1.34,3.52-3.63,3.52C353.08,43.45,351.74,42.16,351.74,39.92z"/>
			<path class="st0" d="M360.14,35.83h3.67c2.49,0,4.2,1.42,4.2,3.72c0,2.31-1.71,3.72-4.2,3.72h-3.67V35.83z M363.71,41.32
				c1.05,0,1.78-0.63,1.78-1.77c0-1.14-0.72-1.77-1.78-1.77h-1.05v3.53H363.71z"/>
			<path class="st0" d="M368.64,39.55c0-2.26,1.78-3.89,4.2-3.89s4.2,1.64,4.2,3.89c0,2.26-1.78,3.89-4.2,3.89
				S368.64,41.81,368.64,39.55z M374.51,39.55c0-1.16-0.74-1.86-1.67-1.86c-0.93,0-1.67,0.7-1.67,1.86c0,1.16,0.74,1.86,1.67,1.86
				C373.76,41.41,374.51,40.71,374.51,39.55z"/>
		</g>
		<path class="st24" d="M382.49,41.56c3.42,2.3,6.57,2.11,9.4,0c0.17-0.13,0.32-0.26,0.32-0.58v-2.45l-4.8,1.28
			c-0.06,0.02-0.12,0.02-0.18,0l-5.05-1.36v2.53C382.17,41.29,382.32,41.44,382.49,41.56L382.49,41.56z M387.33,39.55
			c-0.01,0-0.02,0-0.03,0l-7.96-2.14c-0.05-0.01-0.05-0.08,0-0.09l7.9-1.85c0.01,0,0.02,0,0.03,0l7.83,1.92
			c0.05,0.01,0.05,0.07,0,0.09L387.33,39.55z M380.15,37.9v2.42c-0.24,0.07-0.42,0.26-0.42,0.5c0,0.18,0.1,0.33,0.26,0.43
			l-0.69,1.91c0.64,0.25,1.33,0.27,2.05,0l-0.68-1.9c0.17-0.09,0.28-0.25,0.28-0.44c0-0.23-0.17-0.43-0.42-0.49v-2.35L380.15,37.9z"
			/>
		<g>
			<path class="st16" d="M311.14,16.33c0-1.71,1.31-2.91,3.1-2.91c1.09,0,1.95,0.4,2.5,1.11l-1.18,1.06
				c-0.33-0.41-0.72-0.65-1.22-0.65c-0.78,0-1.3,0.54-1.3,1.39s0.52,1.39,1.3,1.39c0.5,0,0.89-0.24,1.22-0.65l1.18,1.06
				c-0.55,0.72-1.41,1.11-2.5,1.11C312.46,19.24,311.14,18.04,311.14,16.33z"/>
			<path class="st16" d="M316.94,16.33c0-1.69,1.33-2.91,3.14-2.91c1.81,0,3.14,1.22,3.14,2.91c0,1.69-1.33,2.91-3.14,2.91
				C318.27,19.24,316.94,18.02,316.94,16.33z M321.33,16.33c0-0.87-0.56-1.39-1.25-1.39c-0.69,0-1.25,0.52-1.25,1.39
				c0,0.87,0.56,1.39,1.25,1.39C320.78,17.72,321.33,17.2,321.33,16.33z"/>
			<path class="st16" d="M329.4,13.55v5.57h-1.54l-2.12-2.53v2.53h-1.83v-5.57h1.54l2.12,2.53v-2.53H329.4z"/>
			<path class="st16" d="M333.99,16.18h1.63v2.35c-0.68,0.46-1.61,0.71-2.43,0.71c-1.8,0-3.11-1.2-3.11-2.91
				c0-1.71,1.31-2.91,3.15-2.91c1.1,0,1.98,0.38,2.54,1.07l-1.2,1.06c-0.35-0.41-0.76-0.61-1.25-0.61c-0.83,0-1.35,0.53-1.35,1.39
				c0,0.84,0.52,1.39,1.33,1.39c0.23,0,0.45-0.04,0.68-0.14V16.18z"/>
			<path class="st16" d="M338.81,17.71h-0.51v1.4h-1.88v-5.57h2.68c1.55,0,2.54,0.81,2.54,2.1c0,0.8-0.38,1.41-1.05,1.75l1.17,1.72
				h-2L338.81,17.71z M338.98,14.99h-0.68v1.3h0.68c0.52,0,0.76-0.25,0.76-0.65C339.75,15.24,339.5,14.99,338.98,14.99z"/>
			<path class="st16" d="M346.98,17.7v1.42h-4.63v-5.57h4.52v1.42h-2.68v0.65h2.35v1.35h-2.35v0.73H346.98z"/>
			<path class="st16" d="M347.35,18.67l0.6-1.37c0.52,0.31,1.22,0.51,1.84,0.51c0.53,0,0.72-0.11,0.72-0.3
				c0-0.7-3.08-0.14-3.08-2.21c0-1.03,0.87-1.88,2.59-1.88c0.75,0,1.52,0.16,2.1,0.49l-0.56,1.36c-0.55-0.28-1.07-0.41-1.55-0.41
				c-0.55,0-0.72,0.16-0.72,0.35c0,0.67,3.08,0.11,3.08,2.16c0,1.02-0.87,1.88-2.59,1.88C348.85,19.24,347.91,19.01,347.35,18.67z"
				/>
			<path class="st16" d="M352.71,16.33c0-1.69,1.33-2.91,3.14-2.91c1.81,0,3.14,1.22,3.14,2.91c0,1.69-1.33,2.91-3.14,2.91
				C354.03,19.24,352.71,18.02,352.71,16.33z M357.1,16.33c0-0.87-0.56-1.39-1.25-1.39c-0.69,0-1.25,0.52-1.25,1.39
				c0,0.87,0.56,1.39,1.25,1.39C356.54,17.72,357.1,17.2,357.1,16.33z"/>
			<path class="st16" d="M362.06,13.55h2.74c1.86,0,3.14,1.06,3.14,2.78c0,1.73-1.28,2.78-3.14,2.78h-2.74V13.55z M364.72,17.65
				c0.79,0,1.33-0.47,1.33-1.32s-0.54-1.32-1.33-1.32h-0.79v2.64H364.72z"/>
			<path class="st16" d="M368.63,13.55h1.88v5.57h-1.88V13.55z"/>
			<path class="st16" d="M375.1,16.18h1.63v2.35c-0.68,0.46-1.61,0.71-2.43,0.71c-1.8,0-3.11-1.2-3.11-2.91
				c0-1.71,1.31-2.91,3.15-2.91c1.1,0,1.98,0.38,2.54,1.07l-1.2,1.06c-0.35-0.41-0.76-0.61-1.25-0.61c-0.83,0-1.35,0.53-1.35,1.39
				c0,0.84,0.52,1.39,1.33,1.39c0.23,0,0.45-0.04,0.68-0.14V16.18z"/>
			<path class="st16" d="M377.53,13.55h1.88v5.57h-1.88V13.55z"/>
			<path class="st16" d="M381.52,15h-1.63v-1.46h5.14V15h-1.63v4.11h-1.88V15z"/>
			<path class="st16" d="M389.03,18.14h-2.12l-0.37,0.97h-1.91l2.43-5.57h1.85l2.43,5.57h-1.94L389.03,18.14z M388.52,16.79
				l-0.54-1.4l-0.54,1.4H388.52z"/>
			<path class="st16" d="M391.65,13.55h1.88v4.11h2.51v1.46h-4.39V13.55z"/>
		</g>
	</g>
</g>
<g>
	<path class="st0" d="M637.12,31.85c-1.02,0.01-2.04,0-3.06,0c-0.13,0-0.22,0.04-0.29,0.16c-0.57,0.95-1.14,1.9-1.72,2.85
		c-0.27,0.45-0.54,0.91-0.82,1.37c-0.12,0.2-0.15,0.2-0.28-0.01c-0.03-0.05-0.05-0.09-0.08-0.14c-0.81-1.34-1.62-2.69-2.42-4.04
		c-0.08-0.14-0.17-0.2-0.34-0.2c-1.01,0.01-2.02,0-3.03,0c-0.22,0-0.24,0.02-0.24,0.23c0,2.35,0,4.7,0,7.04
		c0,0.17,0.05,0.23,0.22,0.23c0.67-0.01,1.34-0.01,2.02,0c0.17,0,0.23-0.05,0.23-0.22c-0.01-0.61,0-1.21,0-1.82c0-0.77,0-1.53,0-2.3
		c0-0.05-0.02-0.12,0.05-0.13c0.05-0.01,0.07,0.06,0.09,0.09c0.01,0.02,0.02,0.04,0.04,0.06c0.8,1.37,1.6,2.74,2.39,4.11
		c0.09,0.16,0.2,0.22,0.38,0.21c0.54-0.01,1.09-0.01,1.63,0c0.22,0.01,0.34-0.07,0.44-0.26c0.79-1.37,1.59-2.74,2.39-4.11
		c0.03-0.04,0.04-0.12,0.1-0.11c0.07,0.02,0.04,0.1,0.04,0.15c0.01,0.05,0,0.11,0,0.16c0,1.32,0,2.63,0,3.95
		c0,0.17,0.06,0.23,0.23,0.23c0.66-0.01,1.32,0,1.98,0c0.25,0,0.26-0.01,0.26-0.26c0-1.16,0-2.32,0-3.49c0-1.17,0-2.35,0-3.52
		C637.34,31.92,637.29,31.85,637.12,31.85z"/>
	<path class="st0" d="M598.45,35.11c-0.54-0.2-1.1-0.28-1.67-0.28c-0.65-0.01-1.3-0.01-1.95-0.01c-0.16,0-0.32-0.01-0.47-0.05
		c-0.33-0.09-0.45-0.26-0.45-0.64c0-0.39,0.12-0.57,0.46-0.66c0.21-0.05,0.43-0.06,0.65-0.06c1.49,0,2.98,0.01,4.48,0.02
		c0.25,0,0.26-0.01,0.26-0.26c0-0.35,0-0.7,0-1.04c0-0.26-0.01-0.27-0.27-0.27c-1.57,0-3.14,0-4.71,0c-0.66,0-1.31,0.05-1.94,0.26
		c-0.72,0.24-1.23,0.69-1.35,1.48c-0.04,0.26-0.02,0.53-0.02,0.8c0.02,0.67,0.31,1.18,0.89,1.51c0.18,0.1,0.37,0.18,0.57,0.25
		c0.55,0.18,1.12,0.23,1.69,0.24c0.62,0.01,1.24,0,1.86,0c0.14,0,0.28,0.01,0.42,0.05c0.3,0.09,0.42,0.27,0.42,0.64
		c0,0.36-0.12,0.54-0.42,0.63c-0.19,0.06-0.38,0.07-0.58,0.07c-1.01,0-2.02,0-3.03,0.01h-1.82v1.55h1.89v-0.01
		c1.18,0,2.37,0.01,3.55,0c0.6-0.01,1.19-0.11,1.74-0.36c0.54-0.25,0.92-0.63,1.06-1.22c0.09-0.4,0.09-0.81,0.02-1.21
		C599.61,35.8,599.12,35.37,598.45,35.11z"/>
	<path class="st0" d="M622.96,37.79c-1.5,0.01-3,0-4.49,0c-0.05,0-0.09,0-0.14,0c-0.12,0-0.18-0.05-0.18-0.18c0.01-0.3,0-0.6,0-0.9
		c0-0.3,0-0.3,0.29-0.3c1.47,0,2.94,0,4.41,0c0.3,0,0.3,0,0.3-0.31c0-0.33,0-0.66,0-0.99c0-0.28,0-0.28-0.29-0.28
		c-1.45,0-2.9,0-4.35,0c-0.07,0-0.14,0-0.21,0c-0.1,0-0.15-0.05-0.14-0.16c0-0.36,0-0.72,0-1.08c0-0.1,0.05-0.15,0.15-0.15
		c0.06,0,0.13,0,0.19,0c1.47,0,2.94,0,4.41,0c0.24,0,0.25-0.01,0.25-0.25c0-0.35,0-0.71,0-1.06c0-0.26-0.01-0.26-0.27-0.26
		c-2.3,0-4.6,0-6.9,0c-0.29,0-0.29,0-0.29,0.3c0,1.15,0,2.3,0,3.45c0,1.16,0,2.32,0,3.49c0,0.25,0.01,0.26,0.26,0.26
		c0.63,0,1.25,0,1.88,0c1.69,0,3.37,0,5.06,0c0.26,0,0.26,0,0.27-0.27c0-0.37,0-0.73,0-1.1C623.15,37.84,623.11,37.79,622.96,37.79z
		"/>
	<path class="st0" d="M638.67,37.77c-0.1,0-0.11,0.07-0.11,0.15c0,0.2,0,0.4,0,0.6c0,0.21,0,0.41,0,0.62c0,0.07,0.02,0.13,0.1,0.14
		c0.09,0.01,0.12-0.06,0.12-0.14c0-0.41,0-0.81,0-1.22C638.79,37.84,638.77,37.77,638.67,37.77z"/>
	<path class="st0" d="M647.35,36.73c-0.06-0.67-0.39-1.16-0.98-1.48c-0.24-0.13-0.5-0.21-0.76-0.28c-0.53-0.13-1.07-0.15-1.62-0.15
		c-0.61-0.01-1.22,0.03-1.82-0.02c-0.5-0.04-0.65-0.24-0.65-0.74c0-0.34,0.14-0.51,0.47-0.59c0.21-0.05,0.43-0.06,0.65-0.06
		c1.47,0,2.94,0,4.41-0.01c0.06,0,0.13,0,0.19-0.01c0.06,0,0.11-0.03,0.11-0.09c0-0.32,0-0.64,0-0.97
		c-0.07,0.03-0.05,0.13-0.12,0.12c-0.05-0.01-0.05-0.07-0.06-0.12c-0.02-0.06-0.03-0.13-0.05-0.19c-0.04-0.19-0.01-0.22,0.18-0.28
		c-0.04,0-0.08-0.01-0.12-0.01c-1.62,0-3.23-0.01-4.85,0c-0.63,0-1.26,0.05-1.87,0.26c-0.64,0.22-1.12,0.59-1.32,1.27
		c-0.07,0.26-0.08,0.52-0.08,0.79c0,1.02,0.45,1.63,1.41,1.96c0.57,0.19,1.15,0.25,1.74,0.26c0.64,0.02,1.27,0,1.91,0.01
		c0.49,0.01,0.84,0.14,0.78,0.8c-0.02,0.26-0.12,0.42-0.37,0.5c-0.2,0.07-0.4,0.08-0.61,0.08c-1.56,0-3.13,0-4.69,0
		c-0.15,0-0.18,0.05-0.18,0.19c0.01,0.38,0.01,0.77,0,1.15c0,0.17,0.05,0.23,0.22,0.23c1.7,0,3.4,0,5.1-0.01
		c0.63,0,1.25-0.09,1.83-0.34c0.65-0.28,1.05-0.75,1.14-1.46C647.37,37.27,647.37,37,647.35,36.73z"/>
	<path class="st0" d="M622.45,30.38c2.26-0.52,4.26-1.57,6.09-2.96c0.33-0.25,0.49-0.59,0.49-1.01c-0.01-1.5,0-3,0-4.49
		c0-0.04,0-0.08,0-0.12c0-0.08-0.05-0.11-0.12-0.09c-0.06,0.01-0.11,0.03-0.17,0.04c-2.92,0.78-5.83,1.56-8.75,2.34
		c-0.27,0.07-0.53,0.07-0.8,0c-3.1-0.84-6.19-1.67-9.29-2.51c-0.22-0.06-0.23-0.05-0.23,0.18c0,0.78,0,1.57,0,2.35
		c0,0.75,0,1.51,0,2.26c0,0.47,0.18,0.84,0.57,1.11c1.58,1.07,3.26,1.95,5.08,2.53C617.66,30.77,620.04,30.94,622.45,30.38z"/>
	<path class="st0" d="M638.25,37.89c0-0.07-0.03-0.13-0.12-0.12c-0.08,0-0.09,0.06-0.09,0.12c0,0.41-0.01,0.82-0.01,1.23
		c0,0.08,0.01,0.15,0.11,0.15c0.1,0,0.11-0.07,0.11-0.15c0-0.2,0-0.4,0-0.6c0,0,0,0,0,0C638.25,38.32,638.26,38.1,638.25,37.89z"/>
	<path class="st0" d="M603.69,31.85c-0.65,0-1.31,0-1.96,0c-0.22,0-0.24,0.02-0.24,0.24c0,2.34,0,4.67,0,7.01
		c0,0.23,0.02,0.25,0.26,0.25c0.64,0,1.27,0,1.91,0c0.27,0,0.28-0.01,0.28-0.28c0-1.15,0-2.3,0-3.45c0-1.17,0-2.35,0-3.52
		C603.93,31.87,603.91,31.85,603.69,31.85z"/>
	<path class="st0" d="M607.81,30.68c0.23-0.07,0.23-0.07,0.15-0.31c-0.39-1.08-0.78-2.15-1.17-3.23c-0.04-0.11-0.08-0.21,0.05-0.31
		c0.62-0.5,0.53-1.29-0.19-1.62c-0.15-0.07-0.2-0.16-0.2-0.32c0.01-0.68,0-1.36,0-2.03c0-0.61,0-1.23,0-1.84
		c0-0.51,0.05-0.43-0.44-0.52c-0.25-0.05-0.26-0.04-0.26,0.22c0,1.35-0.01,2.7,0,4.05c0,0.23-0.05,0.37-0.28,0.49
		c-0.62,0.32-0.71,1.11-0.19,1.53c0.14,0.11,0.14,0.2,0.09,0.34c-0.4,1.08-0.79,2.17-1.18,3.26c-0.08,0.22-0.08,0.23,0.15,0.3
		C605.5,31.06,606.66,31.05,607.81,30.68z"/>
	<path class="st0" d="M613.92,33.53c-0.15-0.72-0.63-1.15-1.3-1.39c-0.6-0.22-1.22-0.27-1.85-0.28c-1.61-0.01-3.22,0-4.83,0
		c-0.27,0-0.28,0.01-0.28,0.28c0,1.16,0,2.31,0,3.47c0,1.17,0,2.33,0,3.5c0,0.22,0.02,0.24,0.22,0.24c1.7,0,3.4,0.01,5.09-0.01
		c0.61,0,1.21-0.09,1.78-0.33c0.79-0.33,1.18-0.91,1.19-1.77c0-1.09,0-2.18,0-3.27C613.95,33.82,613.95,33.68,613.92,33.53z
		 M611.5,37.16c-0.01,0.33-0.15,0.5-0.46,0.58c-0.15,0.04-0.3,0.05-0.46,0.05c-0.73,0-1.46,0-2.19,0c-0.25,0-0.26-0.01-0.26-0.26
		c0-0.64,0-1.29,0-1.93c0-0.65,0-1.3,0-1.95c0-0.17,0.05-0.23,0.22-0.23c0.8,0.01,1.6,0,2.41,0c0.09,0,0.18,0.01,0.26,0.03
		c0.35,0.08,0.49,0.26,0.49,0.61c0,0.77,0,1.53,0,2.3C611.51,36.64,611.51,36.9,611.5,37.16z"/>
	<path class="st0" d="M604.22,19.46c0.03,0.01,0.07,0.02,0.1,0.03c5.03,1.36,10.05,2.71,15.08,4.07c0.06,0.02,0.13,0.03,0.2,0.05
		c0.08-0.02,0.17-0.04,0.25-0.06c4.89-1.31,9.79-2.62,14.68-3.93c0.07-0.02,0.18-0.01,0.18-0.11c-0.01-0.09-0.12-0.08-0.19-0.1
		c-1.57-0.39-3.15-0.77-4.72-1.16c-3.37-0.83-6.73-1.65-10.1-2.48c-0.14-0.03-0.26-0.04-0.4-0.01c-4.87,1.15-9.75,2.29-14.62,3.43
		c-0.15,0.04-0.3,0.07-0.45,0.11c-0.04,0.01-0.08,0.03-0.09,0.07C604.14,19.43,604.18,19.44,604.22,19.46z"/>
</g>
<g class="st25">
	<defs>
		<polygon id="SVGID_2_" class="st25" points="678.43,524.6 -0.1,523.91 -0.1,63.05 678.43,63.05 		"/>
	</defs>
	<clipPath id="SVGID_3_">
		<use xlink:href="#SVGID_2_"  style="overflow:visible;"/>
	</clipPath>
	<g class="st26">
		<g class="st27">
			<g>
				<g class="st14">
					<g>
						<path class="st2" d="M-1.46,73.89c0,5.85,4.63,10.6,10.43,10.82l0.69,4.46c-3,0.75-5.75,2.08-8.15,3.89l-4.29-4.73
							c0.17-0.48,0.29-0.99,0.29-1.53c0-2.46-1.99-4.45-4.45-4.45c-2.46,0-4.45,1.99-4.45,4.45c0,2.46,1.99,4.45,4.45,4.45
							c0.39,0,0.76-0.07,1.12-0.16l4.29,4.73c-3.26,3.56-5.41,8.15-5.87,13.24h-4.02c-0.9-3.16-3.8-5.48-7.25-5.48
							c-4.17,0-7.54,3.38-7.54,7.54s3.38,7.54,7.54,7.54c3.45,0,6.35-2.32,7.25-5.48h4.02c0.33,3.64,1.53,7.02,3.37,9.96l-4.98,3.8
							c-0.18-0.03-0.36-0.05-0.54-0.05c-1.69,0-3.06,1.37-3.06,3.06c0,1.69,1.37,3.06,3.06,3.06c1.59,0,2.88-1.22,3.03-2.78l5-3.81
							c2.19,2.39,4.87,4.32,7.9,5.59l-1.54,4.86c-2.93,0.2-5.25,2.62-5.25,5.6c0,3.11,2.52,5.64,5.64,5.64
							c3.11,0,5.64-2.52,5.64-5.64c0-1.77-0.83-3.32-2.1-4.35l1.54-4.87c1.56,0.34,3.18,0.53,4.84,0.53c2.62,0,5.13-0.47,7.48-1.29
							l2.25,4.93c-3.01,2.09-4.98,5.57-4.98,9.51c0,6.4,5.18,11.58,11.58,11.58c6.4,0,11.58-5.18,11.58-11.58
							c0-6.4-5.18-11.58-11.58-11.58c-0.98,0-1.94,0.14-2.85,0.37l-2.25-4.93c3.22-1.84,5.93-4.45,7.91-7.58l6.29,3.21
							c0.07,2.32,1.96,4.18,4.29,4.18c2.38,0,4.31-1.93,4.31-4.31c0-2.38-1.93-4.31-4.31-4.31c-0.9,0-1.74,0.28-2.43,0.75l-6.27-3.2
							c1.04-2.6,1.63-5.44,1.63-8.42c0-0.65-0.04-1.28-0.1-1.92l4.67-0.83c1.34,3,4.34,5.1,7.84,5.1c4.74,0,8.58-3.84,8.58-8.58
							c0-4.74-3.84-8.58-8.58-8.58c-4.55,0-8.26,3.54-8.55,8.01l-4.68,0.83c-1.26-4.63-3.94-8.67-7.56-11.61l2.6-3.88
							c0.79,0.27,1.63,0.42,2.51,0.42c4.35,0,7.87-3.52,7.87-7.87c0-4.35-3.52-7.87-7.87-7.87c-4.35,0-7.87,3.52-7.87,7.87
							c0,1.97,0.73,3.77,1.93,5.15l-2.6,3.88c-3.22-1.76-6.92-2.77-10.85-2.77c-0.48,0-0.94,0.04-1.41,0.07l-0.69-4.46
							c4.18-1.5,7.18-5.49,7.18-10.19c0-5.99-4.85-10.84-10.84-10.84C3.39,63.05-1.46,67.9-1.46,73.89z"/>
					</g>
				</g>
				<g class="st14">
					<g>
						<path class="st2" d="M521.56,447.04c0,8.31,6.58,15.07,14.82,15.38l0.98,6.34c-4.26,1.06-8.18,2.96-11.58,5.53l-6.1-6.72
							c0.25-0.68,0.41-1.4,0.41-2.17c0-3.5-2.83-6.33-6.33-6.33c-3.5,0-6.33,2.83-6.33,6.33s2.83,6.33,6.33,6.33
							c0.55,0,1.08-0.09,1.59-0.23l6.1,6.72c-4.64,5.06-7.7,11.58-8.35,18.81h-5.71c-1.28-4.5-5.4-7.79-10.31-7.79
							c-5.92,0-10.72,4.8-10.72,10.72c0,5.92,4.8,10.72,10.72,10.72c4.91,0,9.03-3.3,10.31-7.79h5.71c0.47,5.18,2.17,9.98,4.8,14.16
							l-7.08,5.4c-0.25-0.04-0.51-0.08-0.77-0.08c-2.4,0-4.35,1.95-4.35,4.35c0,2.4,1.95,4.35,4.35,4.35c2.26,0,4.1-1.74,4.31-3.94
							l7.1-5.41c3.12,3.39,6.92,6.14,11.24,7.95l-2.19,6.91c-4.16,0.29-7.46,3.72-7.46,7.96c0,4.43,3.59,8.01,8.01,8.01
							c4.43,0,8.01-3.59,8.01-8.01c0-2.51-1.18-4.72-2.98-6.19l2.19-6.92c2.22,0.48,4.52,0.75,6.88,0.75c3.73,0,7.3-0.67,10.63-1.83
							l3.19,7c-4.27,2.97-7.08,7.91-7.08,13.52c0,9.09,7.37,16.46,16.46,16.46c9.09,0,16.46-7.37,16.46-16.46
							c0-9.09-7.37-16.46-16.46-16.46c-1.4,0-2.75,0.19-4.05,0.52l-3.19-7.01c4.57-2.62,8.43-6.32,11.24-10.77l8.94,4.56
							c0.09,3.3,2.78,5.95,6.1,5.95c3.38,0,6.12-2.74,6.12-6.12s-2.74-6.12-6.12-6.12c-1.28,0-2.47,0.4-3.45,1.07l-8.92-4.55
							c1.48-3.7,2.32-7.73,2.32-11.96c0-0.92-0.06-1.83-0.14-2.73l6.64-1.18c1.9,4.27,6.17,7.24,11.14,7.24
							c6.74,0,12.2-5.46,12.2-12.2c0-6.74-5.46-12.2-12.2-12.2c-6.46,0-11.74,5.03-12.16,11.39l-6.66,1.18
							c-1.8-6.58-5.6-12.32-10.75-16.51l3.7-5.52c1.12,0.38,2.32,0.59,3.57,0.59c6.18,0,11.18-5.01,11.18-11.18
							c0-6.18-5.01-11.18-11.18-11.18c-6.18,0-11.18,5.01-11.18,11.18c0,2.81,1.04,5.36,2.75,7.33l-3.7,5.51
							c-4.58-2.5-9.84-3.93-15.42-3.93c-0.68,0-1.34,0.06-2,0.1l-0.98-6.34c5.94-2.14,10.2-7.81,10.2-14.49
							c0-8.51-6.9-15.41-15.41-15.41S521.56,438.53,521.56,447.04z"/>
					</g>
				</g>
				<g class="st14">
					<g>
						<path class="st2" d="M215.95,11.45c0,5.96,4.72,10.81,10.63,11.03l0.7,4.55c-3.06,0.76-5.87,2.13-8.31,3.97l-4.38-4.82
							c0.18-0.49,0.29-1.01,0.29-1.56c0-2.51-2.03-4.54-4.54-4.54c-2.51,0-4.54,2.03-4.54,4.54c0,2.51,2.03,4.54,4.54,4.54
							c0.4,0,0.77-0.07,1.14-0.16l4.38,4.82c-3.33,3.63-5.52,8.31-5.99,13.49h-4.09c-0.91-3.23-3.87-5.59-7.39-5.59
							c-4.25,0-7.69,3.44-7.69,7.69s3.44,7.69,7.69,7.69c3.52,0,6.48-2.37,7.39-5.59h4.09c0.34,3.71,1.56,7.16,3.44,10.16
							l-5.08,3.87c-0.18-0.03-0.36-0.06-0.55-0.06c-1.72,0-3.12,1.4-3.12,3.12s1.4,3.12,3.12,3.12c1.62,0,2.94-1.24,3.09-2.83
							l5.09-3.88c2.23,2.43,4.97,4.4,8.06,5.7l-1.57,4.95c-2.99,0.21-5.35,2.67-5.35,5.71c0,3.17,2.57,5.75,5.75,5.75
							c3.17,0,5.75-2.57,5.75-5.75c0-1.8-0.84-3.39-2.14-4.44l1.57-4.97c1.59,0.35,3.24,0.54,4.93,0.54c2.68,0,5.23-0.48,7.62-1.32
							l2.29,5.02c-3.07,2.13-5.08,5.68-5.08,9.69c0,6.52,5.29,11.81,11.81,11.81c6.52,0,11.81-5.29,11.81-11.81
							c0-6.52-5.29-11.81-11.81-11.81c-1,0-1.97,0.14-2.9,0.37l-2.29-5.02c3.28-1.88,6.05-4.54,8.07-7.72l6.41,3.27
							c0.07,2.37,2,4.27,4.38,4.27c2.42,0,4.39-1.97,4.39-4.39c0-2.42-1.97-4.39-4.39-4.39c-0.92,0-1.77,0.28-2.48,0.77L254.3,58
							c1.06-2.65,1.66-5.55,1.66-8.58c0-0.66-0.04-1.31-0.1-1.96l4.77-0.85c1.36,3.06,4.43,5.2,7.99,5.2c4.83,0,8.75-3.92,8.75-8.75
							c0-4.83-3.92-8.75-8.75-8.75c-4.64,0-8.42,3.61-8.72,8.17l-4.78,0.85c-1.29-4.72-4.02-8.84-7.71-11.84l2.66-3.96
							c0.81,0.27,1.67,0.43,2.56,0.43c4.43,0,8.02-3.59,8.02-8.02c0-4.43-3.59-8.02-8.02-8.02c-4.43,0-8.02,3.59-8.02,8.02
							c0,2.01,0.75,3.85,1.97,5.26l-2.65,3.96c-3.29-1.8-7.05-2.82-11.06-2.82c-0.48,0-0.96,0.04-1.43,0.07l-0.7-4.55
							c4.26-1.53,7.32-5.6,7.32-10.39c0-6.1-4.95-11.05-11.05-11.05C220.89,0.4,215.95,5.35,215.95,11.45z"/>
					</g>
				</g>
				<g class="st28">
					<g>
						<path class="st2" d="M161.38,197.5c-6.7,0-12.15-5.45-12.15-12.15c0-3.83,1.81-7.43,4.87-9.72l-1.88-4.13
							c-3.81,1.25-7.76,1.51-11.73,0.72l-1.3,4.11c1.29,1.18,2.03,2.81,2.03,4.54c0,3.41-2.77,6.18-6.18,6.18s-6.18-2.77-6.18-6.18
							c0-3.1,2.34-5.71,5.4-6.11l1.3-4.1c-2.75-1.23-5.22-2.97-7.36-5.21l-4.47,3.4c-0.28,1.74-1.75,3.03-3.53,3.03
							c-1.98,0-3.59-1.61-3.59-3.59c0-1.98,1.61-3.59,3.59-3.59c0.14,0,0.27,0.01,0.4,0.03l4.45-3.39c-1.73-2.89-2.8-6.03-3.17-9.35
							h-3.18c-1.1,3.26-4.2,5.5-7.67,5.5c-4.46,0-8.1-3.63-8.1-8.1s3.63-8.1,8.1-8.1c3.47,0,6.56,2.24,7.67,5.5h3.18
							c0.53-4.75,2.48-9.15,5.67-12.77l-3.79-4.17c-0.34,0.07-0.64,0.1-0.94,0.1c-2.75,0-4.99-2.24-4.99-4.99
							c0-2.75,2.24-4.99,4.99-4.99c2.75,0,4.99,2.24,4.99,4.99c0,0.46-0.07,0.93-0.22,1.41l3.79,4.17c2.28-1.65,4.81-2.86,7.52-3.59
							l-0.56-3.59c-5.94-0.44-10.54-5.35-10.54-11.36c0-6.29,5.12-11.4,11.4-11.4c6.29,0,11.4,5.12,11.4,11.4
							c0,4.65-2.86,8.84-7.15,10.57l0.56,3.59c0.32-0.02,0.64-0.04,0.97-0.04c3.73,0,7.43,0.9,10.72,2.62l2.13-3.18
							c-1.17-1.48-1.81-3.32-1.81-5.21c0-4.64,3.78-8.42,8.42-8.42c4.64,0,8.42,3.78,8.42,8.42c0,4.64-3.78,8.42-8.42,8.42
							c-0.78,0-1.55-0.11-2.31-0.33l-2.14,3.19c3.48,2.94,5.98,6.79,7.27,11.16l3.85-0.68c0.51-4.59,4.42-8.12,9.07-8.12
							c5.04,0,9.14,4.1,9.14,9.14c0,5.04-4.1,9.14-9.14,9.14c-3.46,0-6.63-1.97-8.17-5.05l-3.83,0.68c0.03,0.47,0.06,0.98,0.06,1.49
							c0,2.8-0.51,5.56-1.5,8.2l5.61,2.87c0.75-0.44,1.59-0.68,2.47-0.68c2.67,0,4.84,2.17,4.84,4.84s-2.17,4.84-4.84,4.84
							c-2.53,0-4.59-1.91-4.81-4.39l-5.63-2.87c-1.92,2.9-4.48,5.36-7.45,7.14l1.88,4.13c0.87-0.19,1.73-0.28,2.56-0.28
							c6.7,0,12.15,5.45,12.15,12.15C173.53,192.05,168.08,197.5,161.38,197.5z M152.77,170.21l2.63,5.78l-0.36,0.25
							c-2.99,2.08-4.78,5.49-4.78,9.12c0,6.12,4.98,11.1,11.11,11.1c6.12,0,11.11-4.98,11.11-11.1c0-6.12-4.98-11.11-11.11-11.11
							c-0.89,0-1.81,0.12-2.73,0.35l-0.42,0.11l-2.63-5.78l0.41-0.24c3.14-1.8,5.82-4.37,7.76-7.43l0.25-0.4l7.02,3.58l0.01,0.31
							c0.06,2.07,1.72,3.69,3.79,3.69c2.1,0,3.8-1.71,3.8-3.8c0-2.1-1.71-3.8-3.8-3.8c-0.77,0-1.51,0.23-2.14,0.66l-0.26,0.18
							l-7-3.57l0.18-0.44c1.06-2.65,1.6-5.43,1.6-8.26c0-0.66-0.05-1.32-0.1-1.88l-0.04-0.47l5.56-0.99l0.17,0.37
							c1.3,2.92,4.2,4.81,7.39,4.81c4.46,0,8.1-3.63,8.1-8.1s-3.63-8.1-8.1-8.1c-4.24,0-7.79,3.32-8.07,7.56l-0.03,0.41l-5.57,0.99
							l-0.13-0.46c-1.23-4.51-3.8-8.45-7.42-11.39l-0.37-0.3l3.1-4.63l0.38,0.13c0.77,0.26,1.56,0.39,2.36,0.39
							c4.07,0,7.38-3.31,7.38-7.38s-3.31-7.38-7.38-7.38c-4.07,0-7.38,3.31-7.38,7.38c0,1.77,0.64,3.49,1.81,4.83l0.26,0.3
							l-3.1,4.62l-0.42-0.23c-3.25-1.78-6.93-2.71-10.64-2.71c-0.35,0-0.69,0.02-1.04,0.05l-0.81,0.05l-0.83-5.38l0.41-0.15
							c4.1-1.47,6.86-5.39,6.86-9.74c0-5.71-4.65-10.36-10.36-10.36s-10.36,4.65-10.36,10.36c0,5.59,4.38,10.13,9.97,10.34
							l0.43,0.02l0.83,5.37l-0.46,0.12c-2.91,0.72-5.6,2.01-7.99,3.82l-0.38,0.29l-4.84-5.33l0.11-0.3
							c0.17-0.47,0.26-0.91,0.26-1.35c0-2.18-1.77-3.95-3.95-3.95c-2.18,0-3.95,1.77-3.95,3.95c0,2.18,1.77,3.95,3.95,3.95
							c0.3,0,0.62-0.05,0.99-0.14l0.31-0.08l4.84,5.33l-0.32,0.35c-3.33,3.63-5.32,8.12-5.76,12.98l-0.04,0.47h-4.9l-0.11-0.38
							c-0.86-3.02-3.64-5.13-6.78-5.13c-3.89,0-7.05,3.16-7.05,7.05s3.16,7.05,7.05,7.05c3.14,0,5.92-2.11,6.78-5.13l0.11-0.38h4.9
							l0.04,0.47c0.32,3.49,1.43,6.78,3.31,9.77l0.25,0.4l-5.56,4.24l-0.23-0.04c-0.15-0.03-0.3-0.05-0.45-0.05
							c-1.4,0-2.55,1.14-2.55,2.55c0,1.41,1.14,2.55,2.55,2.55c1.32,0,2.4-0.99,2.52-2.31l0.02-0.23l5.58-4.25l0.32,0.35
							c2.21,2.41,4.82,4.25,7.75,5.49l0.44,0.18l-1.79,5.67l-0.35,0.02c-2.68,0.19-4.78,2.43-4.78,5.1c0,2.83,2.31,5.14,5.14,5.14
							c2.83,0,5.14-2.31,5.14-5.14c0-1.53-0.7-2.98-1.91-3.97l-0.28-0.22l1.8-5.68l0.46,0.1c4.09,0.89,8.16,0.63,12.08-0.75
							L152.77,170.21z"/>
					</g>
				</g>
				<g class="st14">
					<g>
						<g>
							<path class="st2" d="M672.09,382.84c-10.9,0-19.76-8.86-19.76-19.76c0-6.21,2.93-12.05,7.88-15.78l-3.02-6.61
								c-6.16,2.01-12.54,2.43-18.96,1.17l-2.09,6.59c2.09,1.92,3.28,4.58,3.28,7.39c0,5.56-4.52,10.08-10.08,10.08
								s-10.08-4.52-10.08-10.08c0-5.04,3.8-9.3,8.77-9.95l2.08-6.57c-4.44-1.98-8.43-4.81-11.87-8.4l-7.19,5.48
								c-0.46,2.84-2.87,4.93-5.78,4.93c-3.24,0-5.88-2.64-5.88-5.88c0-3.24,2.64-5.88,5.88-5.88c0.2,0,0.41,0.01,0.64,0.04
								l7.16-5.46c-2.8-4.66-4.51-9.74-5.12-15.1h-5.06c-1.81,5.29-6.84,8.93-12.47,8.93c-7.27,0-13.19-5.92-13.19-13.19
								c0-7.27,5.92-13.19,13.19-13.19c5.63,0,10.67,3.64,12.47,8.93h5.06c0.86-7.69,4.02-14.8,9.17-20.65l-6.09-6.71
								c-0.54,0.11-1.03,0.16-1.51,0.16c-4.5,0-8.15-3.66-8.15-8.16c0-4.5,3.66-8.15,8.15-8.15c4.5,0,8.16,3.66,8.16,8.15
								c0,0.74-0.12,1.5-0.34,2.27l6.09,6.71c3.68-2.66,7.76-4.61,12.13-5.8l-0.89-5.74c-9.65-0.74-17.1-8.72-17.1-18.47
								c0-10.23,8.32-18.55,18.55-18.55c10.23,0,18.55,8.32,18.55,18.55c0,7.54-4.63,14.35-11.59,17.18l0.89,5.73
								c0.5-0.03,1.01-0.06,1.53-0.06c6.05,0,12.04,1.46,17.38,4.23l3.41-5.08c-1.89-2.41-2.93-5.39-2.93-8.45
								c0-7.56,6.15-13.72,13.72-13.72c7.56,0,13.72,6.15,13.72,13.72c0,7.56-6.15,13.72-13.72,13.72c-1.25,0-2.5-0.18-3.72-0.52
								l-3.41,5.09c5.62,4.76,9.66,10.98,11.76,18.06l6.15-1.09c0.85-7.45,7.2-13.18,14.77-13.18c8.21,0,14.88,6.67,14.88,14.88
								c0,8.21-6.67,14.88-14.88,14.88c-5.63,0-10.77-3.19-13.28-8.19l-6.13,1.09c0.05,0.75,0.1,1.56,0.1,2.38
								c0,4.53-0.82,9-2.43,13.27l9.04,4.61c1.21-0.71,2.59-1.09,4-1.09c4.36,0,7.91,3.55,7.91,7.91c0,4.36-3.55,7.91-7.91,7.91
								c-4.12,0-7.47-3.1-7.86-7.15l-9.06-4.63c-3.11,4.68-7.24,8.64-12.04,11.53l3.02,6.62c1.39-0.3,2.78-0.45,4.13-0.45
								c10.9,0,19.76,8.87,19.76,19.76C691.85,373.97,682.98,382.84,672.09,382.84z M658.16,338.44l4.31,9.46l-0.62,0.43
								c-4.84,3.36-7.72,8.88-7.72,14.75c0,9.9,8.06,17.96,17.96,17.96c9.9,0,17.96-8.06,17.96-17.96c0-9.9-8.06-17.96-17.96-17.96
								c-1.43,0-2.92,0.19-4.42,0.57l-0.73,0.18l-4.31-9.46l0.71-0.41c5.08-2.91,9.43-7.07,12.57-12.04l0.44-0.69l11.45,5.85
								l0.02,0.53c0.1,3.33,2.77,5.94,6.09,5.94c3.37,0,6.11-2.74,6.11-6.11c0-3.37-2.74-6.11-6.11-6.11
								c-1.23,0-2.42,0.37-3.45,1.07l-0.44,0.3l-11.43-5.83l0.31-0.76c1.72-4.3,2.6-8.8,2.6-13.37c0-1.06-0.07-2.09-0.15-3.05
								l-0.07-0.82l9.12-1.62l0.29,0.64c2.1,4.72,6.79,7.77,11.94,7.77c7.21,0,13.08-5.87,13.08-13.08
								c0-7.21-5.87-13.08-13.08-13.08c-6.85,0-12.58,5.36-13.03,12.2l-0.05,0.7l-9.13,1.62l-0.22-0.79
								c-2-7.31-6.15-13.69-12.01-18.45l-0.64-0.52l5.08-7.58l0.65,0.22c1.24,0.42,2.52,0.63,3.81,0.63
								c6.57,0,11.91-5.34,11.91-11.91c0-6.57-5.34-11.91-11.91-11.91c-6.57,0-11.91,5.34-11.91,11.91c0,2.86,1.04,5.63,2.93,7.8
								l0.45,0.52l-5.08,7.58l-0.72-0.4c-5.26-2.88-11.22-4.4-17.24-4.4c-0.56,0-1.1,0.04-1.68,0.08l-1.37,0.09l-1.36-8.81l0.7-0.25
								c6.63-2.38,11.09-8.71,11.09-15.75c0-9.24-7.51-16.75-16.75-16.75c-9.24,0-16.75,7.51-16.75,16.75
								c0,9.03,7.08,16.38,16.11,16.72l0.74,0.03l1.36,8.81l-0.8,0.2c-4.71,1.17-9.06,3.25-12.94,6.18l-0.66,0.5l-7.91-8.71
								l0.19-0.51c0.28-0.75,0.41-1.46,0.41-2.17c0-3.5-2.85-6.35-6.35-6.35c-3.5,0-6.35,2.85-6.35,6.35c0,3.5,2.85,6.35,6.35,6.35
								c0.48,0,0.99-0.07,1.59-0.23l0.53-0.14l7.91,8.71l-0.56,0.61c-5.39,5.88-8.62,13.15-9.33,21.03l-0.07,0.82h-8.04l-0.19-0.66
								c-1.38-4.87-5.88-8.27-10.94-8.27c-6.28,0-11.38,5.11-11.38,11.38c0,6.28,5.11,11.38,11.38,11.38c5.06,0,9.56-3.4,10.94-8.27
								l0.19-0.66h8.04l0.07,0.82c0.51,5.65,2.31,10.98,5.36,15.83l0.44,0.7l-9.09,6.92l-0.39-0.07c-0.28-0.05-0.51-0.08-0.72-0.08
								c-2.25,0-4.08,1.83-4.08,4.08c0,2.25,1.83,4.08,4.08,4.08c2.1,0,3.84-1.59,4.04-3.7l0.04-0.39l9.11-6.94l0.56,0.61
								c3.58,3.9,7.81,6.89,12.56,8.89l0.76,0.32l-2.94,9.28l-0.61,0.04c-4.32,0.3-7.71,3.91-7.71,8.22c0,4.57,3.71,8.28,8.28,8.28
								s8.28-3.71,8.28-8.28c0-2.47-1.12-4.8-3.08-6.39l-0.47-0.39l2.94-9.3l0.8,0.17c6.63,1.44,13.23,1.01,19.57-1.21
								L658.16,338.44z"/>
						</g>
					</g>
				</g>
				<g class="st14">
					<g>
						<g>
							<path class="st2" d="M375.32,550.55c-6.69,0-12.13-5.44-12.13-12.13c0-3.81,1.8-7.4,4.84-9.69l-1.85-4.06
								c-3.78,1.24-7.7,1.49-11.64,0.72l-1.28,4.05c1.28,1.18,2.01,2.81,2.01,4.53c0,3.41-2.78,6.19-6.19,6.19s-6.19-2.78-6.19-6.19
								c0-3.1,2.33-5.71,5.38-6.11l1.28-4.04c-2.73-1.22-5.17-2.95-7.29-5.16l-4.41,3.36c-0.28,1.74-1.76,3.03-3.55,3.03
								c-1.99,0-3.61-1.62-3.61-3.61s1.62-3.61,3.61-3.61c0.13,0,0.25,0.01,0.39,0.03l4.4-3.35c-1.72-2.86-2.77-5.98-3.14-9.27
								h-3.11c-1.11,3.25-4.2,5.48-7.66,5.48c-4.46,0-8.1-3.63-8.1-8.1c0-4.46,3.63-8.1,8.1-8.1c3.46,0,6.55,2.23,7.66,5.48h3.11
								c0.53-4.72,2.47-9.08,5.63-12.68l-3.74-4.12c-0.33,0.07-0.63,0.1-0.93,0.1c-2.76,0-5.01-2.25-5.01-5.01
								c0-2.76,2.25-5.01,5.01-5.01c2.76,0,5.01,2.25,5.01,5.01c0,0.46-0.07,0.92-0.21,1.39l3.74,4.12
								c2.26-1.63,4.76-2.83,7.45-3.56l-0.54-3.52c-5.92-0.46-10.5-5.35-10.5-11.34c0-6.28,5.11-11.39,11.39-11.39
								c6.28,0,11.39,5.11,11.39,11.39c0,4.63-2.84,8.81-7.11,10.55l0.54,3.52c0.3-0.02,0.62-0.04,0.94-0.04
								c3.71,0,7.39,0.9,10.67,2.6l2.09-3.12c-1.16-1.48-1.8-3.31-1.8-5.19c0-4.64,3.78-8.42,8.42-8.42c4.64,0,8.42,3.78,8.42,8.42
								c0,4.64-3.78,8.42-8.42,8.42c-0.77,0-1.53-0.11-2.28-0.32l-2.1,3.13c3.45,2.93,5.93,6.74,7.22,11.08l3.77-0.67
								c0.52-4.57,4.42-8.09,9.07-8.09c5.04,0,9.13,4.1,9.13,9.13c0,5.04-4.1,9.13-9.13,9.13c-3.45,0-6.61-1.96-8.16-5.03
								l-3.76,0.67c0.03,0.46,0.06,0.96,0.06,1.46c0,2.78-0.5,5.52-1.49,8.15l5.55,2.83c0.75-0.44,1.59-0.67,2.46-0.67
								c2.68,0,4.86,2.18,4.86,4.86c0,2.68-2.18,4.86-4.86,4.86c-2.53,0-4.59-1.9-4.82-4.39l-5.56-2.84
								c-1.91,2.87-4.45,5.31-7.39,7.08l1.85,4.06c0.86-0.19,1.71-0.28,2.53-0.28c6.69,0,12.13,5.44,12.13,12.13
								S382.01,550.55,375.32,550.55z M366.77,523.3l2.65,5.81l-0.38,0.26c-2.97,2.07-4.74,5.45-4.74,9.05
								c0,6.08,4.95,11.02,11.03,11.02s11.02-4.95,11.02-11.02c0-6.08-4.95-11.03-11.02-11.03c-0.88,0-1.79,0.12-2.71,0.35
								l-0.45,0.11l-2.65-5.81l0.44-0.25c3.12-1.79,5.79-4.34,7.72-7.39l0.27-0.43l7.03,3.59l0.01,0.33
								c0.06,2.04,1.7,3.65,3.74,3.65c2.07,0,3.75-1.68,3.75-3.75c0-2.07-1.68-3.75-3.75-3.75c-0.76,0-1.49,0.23-2.12,0.66
								l-0.27,0.19l-7.02-3.58l0.19-0.47c1.06-2.64,1.59-5.4,1.59-8.21c0-0.65-0.05-1.28-0.1-1.87l-0.04-0.5l5.6-0.99l0.18,0.4
								c1.29,2.9,4.17,4.77,7.33,4.77c4.43,0,8.03-3.6,8.03-8.03c0-4.43-3.6-8.03-8.03-8.03c-4.21,0-7.72,3.29-8,7.49l-0.03,0.43
								l-5.61,1l-0.13-0.49c-1.23-4.49-3.78-8.4-7.38-11.33l-0.39-0.32l3.12-4.65l0.4,0.14c0.76,0.26,1.55,0.39,2.34,0.39
								c4.03,0,7.31-3.28,7.31-7.31s-3.28-7.31-7.31-7.31c-4.03,0-7.31,3.28-7.31,7.31c0,1.76,0.64,3.46,1.8,4.79l0.28,0.32
								l-3.12,4.65l-0.44-0.24c-3.23-1.77-6.89-2.7-10.58-2.7c-0.34,0-0.68,0.02-1.03,0.05l-0.84,0.05l-0.84-5.41l0.43-0.15
								c4.07-1.46,6.81-5.35,6.81-9.67c0-5.67-4.61-10.28-10.28-10.28c-5.67,0-10.28,4.61-10.28,10.28c0,5.55,4.34,10.05,9.89,10.26
								l0.46,0.02l0.84,5.41l-0.49,0.12c-2.89,0.72-5.56,2-7.94,3.8l-0.4,0.3l-4.86-5.35l0.12-0.31c0.17-0.46,0.25-0.9,0.25-1.33
								c0-2.15-1.75-3.9-3.9-3.9c-2.15,0-3.9,1.75-3.9,3.9c0,2.15,1.75,3.9,3.9,3.9c0.3,0,0.61-0.04,0.98-0.14l0.32-0.08l4.86,5.35
								l-0.34,0.37c-3.31,3.61-5.29,8.07-5.73,12.91l-0.05,0.5h-4.94l-0.11-0.4c-0.85-2.99-3.61-5.08-6.72-5.08
								c-3.85,0-6.99,3.14-6.99,6.99c0,3.85,3.14,6.99,6.99,6.99c3.11,0,5.87-2.09,6.72-5.08l0.11-0.4h4.94l0.05,0.5
								c0.31,3.47,1.42,6.74,3.29,9.72l0.27,0.43l-5.58,4.25l-0.24-0.04c-0.17-0.03-0.32-0.05-0.44-0.05c-1.38,0-2.5,1.12-2.5,2.5
								s1.12,2.5,2.5,2.5c1.29,0,2.36-0.98,2.48-2.27l0.02-0.24l5.59-4.26l0.34,0.37c2.2,2.4,4.79,4.23,7.71,5.46l0.47,0.2l-1.8,5.7
								l-0.38,0.03c-2.65,0.18-4.73,2.4-4.73,5.05c0,2.8,2.28,5.08,5.08,5.08s5.08-2.28,5.08-5.08c0-1.51-0.69-2.95-1.89-3.93
								l-0.29-0.24l1.81-5.71l0.49,0.11c4.07,0.89,8.12,0.62,12.01-0.74L366.77,523.3z"/>
						</g>
					</g>
				</g>
				<g class="st29">
					<g>
						<g>
							<path class="st2" d="M157.32,518.8c-6.26,0-11.35-5.09-11.35-11.35c0-3.57,1.69-6.92,4.53-9.07l-1.73-3.8
								c-3.54,1.16-7.2,1.4-10.9,0.67l-1.2,3.79c1.2,1.1,1.88,2.63,1.88,4.24c0,3.19-2.6,5.79-5.79,5.79c-3.19,0-5.79-2.6-5.79-5.79
								c0-2.9,2.19-5.34,5.04-5.72l1.2-3.78c-2.55-1.14-4.84-2.76-6.82-4.83l-4.13,3.15c-0.26,1.63-1.65,2.83-3.32,2.83
								c-1.86,0-3.38-1.52-3.38-3.38c0-1.86,1.52-3.38,3.38-3.38c0.12,0,0.24,0.01,0.37,0.02l4.12-3.14
								c-1.61-2.68-2.59-5.59-2.94-8.68h-2.91c-1.04,3.04-3.93,5.13-7.17,5.13c-4.18,0-7.58-3.4-7.58-7.58
								c0-4.18,3.4-7.58,7.58-7.58c3.24,0,6.13,2.09,7.17,5.13h2.91c0.49-4.42,2.31-8.5,5.27-11.87l-3.5-3.85
								c-0.31,0.06-0.59,0.09-0.87,0.09c-2.58,0-4.69-2.1-4.69-4.69c0-2.58,2.1-4.69,4.69-4.69c2.58,0,4.69,2.1,4.69,4.69
								c0,0.43-0.07,0.86-0.2,1.3l3.5,3.85c2.12-1.53,4.46-2.65,6.97-3.33l-0.51-3.3c-5.54-0.43-9.83-5.01-9.83-10.62
								c0-5.88,4.78-10.66,10.66-10.66c5.88,0,10.66,4.78,10.66,10.66c0,4.33-2.66,8.25-6.66,9.87l0.51,3.29
								c0.28-0.02,0.58-0.04,0.88-0.04c3.47,0,6.92,0.84,9.98,2.43l1.96-2.92c-1.09-1.39-1.68-3.09-1.68-4.86
								c0-4.35,3.54-7.88,7.88-7.88s7.88,3.54,7.88,7.88c0,4.35-3.54,7.88-7.88,7.88c-0.72,0-1.44-0.1-2.14-0.3l-1.96,2.93
								c3.23,2.74,5.55,6.31,6.76,10.37l3.53-0.63c0.49-4.28,4.14-7.57,8.48-7.57c4.71,0,8.55,3.84,8.55,8.55
								c0,4.71-3.84,8.55-8.55,8.55c-3.23,0-6.19-1.83-7.63-4.71l-3.52,0.63c0.03,0.43,0.06,0.9,0.06,1.37
								c0,2.61-0.47,5.17-1.39,7.63l5.19,2.65c0.7-0.41,1.49-0.63,2.3-0.63c2.51,0,4.55,2.04,4.55,4.55c0,2.51-2.04,4.55-4.55,4.55
								c-2.37,0-4.29-1.78-4.52-4.11l-5.21-2.66c-1.79,2.69-4.16,4.97-6.92,6.63l1.73,3.8c0.8-0.17,1.6-0.26,2.37-0.26
								c6.26,0,11.35,5.09,11.35,11.35S163.58,518.8,157.32,518.8z M149.32,493.3l2.48,5.43l-0.35,0.25
								c-2.78,1.93-4.44,5.1-4.44,8.47c0,5.69,4.63,10.32,10.32,10.32c5.69,0,10.32-4.63,10.32-10.32s-4.63-10.32-10.32-10.32
								c-0.82,0-1.68,0.11-2.54,0.33l-0.42,0.11l-2.48-5.44l0.41-0.23c2.92-1.67,5.42-4.06,7.22-6.92l0.25-0.4l6.58,3.36l0.01,0.31
								c0.05,1.91,1.59,3.41,3.5,3.41c1.94,0,3.51-1.58,3.51-3.51c0-1.94-1.58-3.51-3.51-3.51c-0.71,0-1.39,0.21-1.98,0.61
								l-0.25,0.17l-6.57-3.35l0.18-0.44c0.99-2.47,1.49-5.05,1.49-7.68c0-0.61-0.04-1.2-0.09-1.75l-0.04-0.47l5.24-0.93l0.16,0.37
								c1.21,2.71,3.9,4.46,6.86,4.46c4.14,0,7.51-3.37,7.51-7.51c0-4.14-3.37-7.51-7.51-7.51c-3.94,0-7.23,3.08-7.49,7.01
								l-0.03,0.4l-5.25,0.93l-0.12-0.46c-1.15-4.2-3.53-7.86-6.9-10.6l-0.37-0.3l2.92-4.36l0.38,0.13
								c0.72,0.24,1.45,0.36,2.19,0.36c3.77,0,6.85-3.07,6.85-6.85s-3.07-6.85-6.85-6.85s-6.85,3.07-6.85,6.85
								c0,1.64,0.6,3.24,1.68,4.48l0.26,0.3l-2.92,4.35l-0.42-0.23c-3.02-1.65-6.45-2.53-9.91-2.53c-0.32,0-0.63,0.02-0.97,0.04
								l-0.79,0.05l-0.78-5.06l0.4-0.14c3.81-1.37,6.37-5.01,6.37-9.05c0-5.31-4.32-9.62-9.62-9.62c-5.31,0-9.62,4.32-9.62,9.62
								c0,5.19,4.07,9.41,9.26,9.6l0.43,0.02l0.78,5.06l-0.46,0.11c-2.71,0.67-5.21,1.87-7.44,3.55l-0.38,0.29l-4.55-5.01l0.11-0.29
								c0.16-0.43,0.24-0.84,0.24-1.25c0-2.01-1.64-3.65-3.65-3.65c-2.01,0-3.65,1.64-3.65,3.65c0,2.01,1.64,3.65,3.65,3.65
								c0.28,0,0.57-0.04,0.92-0.13l0.3-0.08l4.55,5.01l-0.32,0.35c-3.1,3.38-4.95,7.56-5.36,12.08l-0.04,0.47h-4.62l-0.11-0.38
								c-0.79-2.8-3.38-4.75-6.29-4.75c-3.61,0-6.54,2.93-6.54,6.54c0,3.61,2.93,6.54,6.54,6.54c2.91,0,5.49-1.96,6.29-4.75
								l0.11-0.38h4.62l0.04,0.47c0.29,3.25,1.33,6.31,3.08,9.09l0.25,0.4l-5.22,3.98l-0.22-0.04c-0.16-0.03-0.3-0.04-0.42-0.04
								c-1.29,0-2.34,1.05-2.34,2.34c0,1.29,1.05,2.34,2.34,2.34c1.21,0,2.21-0.91,2.32-2.13l0.02-0.23l5.23-3.99l0.32,0.35
								c2.06,2.24,4.48,3.96,7.22,5.11l0.44,0.18l-1.69,5.33l-0.35,0.02c-2.48,0.17-4.43,2.25-4.43,4.72c0,2.62,2.13,4.76,4.76,4.76
								c2.62,0,4.76-2.13,4.76-4.76c0-1.42-0.65-2.76-1.77-3.67l-0.27-0.22l1.69-5.34l0.46,0.1c3.81,0.83,7.6,0.58,11.24-0.69
								L149.32,493.3z"/>
						</g>
					</g>
				</g>
				<g class="st30">
					<g>
						<g>
							<path class="st2" d="M500.36,170.89c-6.26,0-11.35-5.09-11.35-11.35c0-3.57,1.69-6.92,4.53-9.07l-1.73-3.8
								c-3.54,1.16-7.2,1.4-10.9,0.67l-1.2,3.79c1.2,1.1,1.88,2.63,1.88,4.24c0,3.19-2.6,5.79-5.79,5.79c-3.19,0-5.79-2.6-5.79-5.79
								c0-2.9,2.19-5.34,5.04-5.72l1.2-3.78c-2.55-1.14-4.84-2.76-6.82-4.83l-4.13,3.15c-0.26,1.63-1.65,2.83-3.32,2.83
								c-1.86,0-3.38-1.52-3.38-3.38s1.52-3.38,3.38-3.38c0.12,0,0.24,0.01,0.37,0.02l4.12-3.14c-1.61-2.68-2.59-5.59-2.94-8.68
								h-2.91c-1.04,3.04-3.93,5.13-7.17,5.13c-4.18,0-7.58-3.4-7.58-7.58c0-4.18,3.4-7.58,7.58-7.58c3.24,0,6.13,2.09,7.17,5.13
								h2.91c0.49-4.42,2.31-8.5,5.27-11.87l-3.5-3.85c-0.31,0.06-0.59,0.09-0.87,0.09c-2.58,0-4.69-2.1-4.69-4.69
								c0-2.58,2.1-4.69,4.69-4.69c2.58,0,4.69,2.1,4.69,4.69c0,0.43-0.07,0.86-0.2,1.3l3.5,3.85c2.12-1.53,4.46-2.65,6.97-3.33
								l-0.51-3.3c-5.54-0.43-9.83-5.01-9.83-10.62c0-5.88,4.78-10.66,10.66-10.66c5.88,0,10.66,4.78,10.66,10.66
								c0,4.33-2.66,8.25-6.66,9.87l0.51,3.29c0.28-0.02,0.58-0.04,0.88-0.04c3.47,0,6.92,0.84,9.98,2.43l1.96-2.92
								c-1.09-1.39-1.68-3.09-1.68-4.86c0-4.35,3.54-7.88,7.88-7.88s7.88,3.54,7.88,7.88c0,4.35-3.54,7.88-7.88,7.88
								c-0.72,0-1.44-0.1-2.14-0.3l-1.96,2.93c3.23,2.74,5.55,6.31,6.76,10.37l3.53-0.63c0.49-4.28,4.14-7.57,8.48-7.57
								c4.71,0,8.55,3.84,8.55,8.55c0,4.71-3.84,8.55-8.55,8.55c-3.23,0-6.19-1.83-7.63-4.71l-3.52,0.63
								c0.03,0.43,0.06,0.9,0.06,1.37c0,2.61-0.47,5.17-1.39,7.63l5.19,2.65c0.7-0.41,1.49-0.63,2.3-0.63
								c2.51,0,4.55,2.04,4.55,4.55c0,2.51-2.04,4.55-4.55,4.55c-2.37,0-4.29-1.78-4.52-4.11l-5.21-2.66
								c-1.79,2.69-4.16,4.97-6.92,6.63l1.73,3.8c0.8-0.17,1.6-0.26,2.37-0.26c6.26,0,11.35,5.09,11.35,11.35
								S506.62,170.89,500.36,170.89z M492.35,145.38l2.48,5.43l-0.35,0.25c-2.78,1.93-4.44,5.1-4.44,8.47
								c0,5.69,4.63,10.32,10.32,10.32s10.32-4.63,10.32-10.32s-4.63-10.32-10.32-10.32c-0.82,0-1.68,0.11-2.54,0.33l-0.42,0.11
								l-2.48-5.44l0.41-0.23c2.92-1.67,5.42-4.06,7.22-6.92l0.25-0.4l6.58,3.36l0.01,0.31c0.05,1.91,1.59,3.41,3.5,3.41
								c1.94,0,3.51-1.58,3.51-3.51c0-1.94-1.58-3.51-3.51-3.51c-0.71,0-1.39,0.21-1.98,0.61l-0.25,0.17l-6.57-3.35l0.18-0.44
								c0.99-2.47,1.49-5.05,1.49-7.68c0-0.61-0.04-1.2-0.09-1.75l-0.04-0.47l5.24-0.93l0.16,0.37c1.21,2.71,3.9,4.46,6.86,4.46
								c4.14,0,7.51-3.37,7.51-7.51c0-4.14-3.37-7.51-7.51-7.51c-3.94,0-7.23,3.08-7.49,7.01l-0.03,0.4l-5.25,0.93l-0.12-0.46
								c-1.15-4.2-3.53-7.86-6.9-10.6l-0.37-0.3l2.92-4.36l0.38,0.13c0.72,0.24,1.45,0.36,2.19,0.36c3.77,0,6.85-3.07,6.85-6.85
								c0-3.77-3.07-6.85-6.85-6.85s-6.85,3.07-6.85,6.85c0,1.64,0.6,3.24,1.68,4.48l0.26,0.3l-2.92,4.35l-0.42-0.23
								c-3.02-1.65-6.45-2.53-9.91-2.53c-0.32,0-0.63,0.02-0.97,0.04l-0.79,0.05l-0.78-5.06l0.4-0.14c3.81-1.37,6.37-5.01,6.37-9.05
								c0-5.31-4.32-9.62-9.62-9.62c-5.31,0-9.62,4.32-9.62,9.62c0,5.19,4.07,9.41,9.26,9.6l0.43,0.02l0.78,5.06l-0.46,0.11
								c-2.71,0.67-5.21,1.87-7.44,3.55l-0.38,0.29l-4.55-5.01l0.11-0.29c0.16-0.43,0.24-0.84,0.24-1.25c0-2.01-1.64-3.65-3.65-3.65
								c-2.01,0-3.65,1.64-3.65,3.65c0,2.01,1.64,3.65,3.65,3.65c0.28,0,0.57-0.04,0.92-0.13l0.3-0.08l4.55,5.01l-0.32,0.35
								c-3.1,3.38-4.95,7.56-5.36,12.08l-0.04,0.47h-4.62l-0.11-0.38c-0.79-2.8-3.38-4.75-6.29-4.75c-3.61,0-6.54,2.93-6.54,6.54
								c0,3.61,2.93,6.54,6.54,6.54c2.91,0,5.49-1.96,6.29-4.75l0.11-0.38h4.62l0.04,0.47c0.29,3.25,1.33,6.31,3.08,9.09l0.25,0.4
								l-5.22,3.98l-0.22-0.04c-0.16-0.03-0.3-0.04-0.42-0.04c-1.29,0-2.34,1.05-2.34,2.34c0,1.29,1.05,2.34,2.34,2.34
								c1.21,0,2.21-0.91,2.32-2.13l0.02-0.23l5.23-3.99l0.32,0.35c2.06,2.24,4.48,3.96,7.22,5.11l0.44,0.18l-1.69,5.33l-0.35,0.02
								c-2.48,0.17-4.43,2.25-4.43,4.72c0,2.62,2.13,4.76,4.76,4.76s4.76-2.13,4.76-4.76c0-1.42-0.65-2.76-1.77-3.67l-0.27-0.22
								l1.69-5.34l0.46,0.1c3.81,0.83,7.6,0.58,11.24-0.69L492.35,145.38z"/>
						</g>
					</g>
				</g>
				<g class="st28">
					<g>
						<path class="st2" d="M4.01,260.6c0,8.64,6.85,15.66,15.41,15.98l1.02,6.59c-4.43,1.1-8.5,3.08-12.04,5.75l-6.34-6.98
							c0.26-0.71,0.42-1.46,0.42-2.25c0-3.63-2.95-6.58-6.58-6.58c-3.63,0-6.58,2.95-6.58,6.58c0,3.63,2.95,6.58,6.58,6.58
							c0.57,0,1.12-0.1,1.65-0.23l6.35,6.99c-4.82,5.26-8,12.04-8.68,19.56h-5.93c-1.33-4.67-5.62-8.1-10.71-8.1
							c-6.16,0-11.15,4.99-11.15,11.15s4.99,11.15,11.15,11.15c5.1,0,9.39-3.43,10.71-8.1h5.93c0.49,5.38,2.26,10.38,4.99,14.72
							L-7.17,339c-0.26-0.05-0.53-0.08-0.8-0.08c-2.5,0-4.52,2.02-4.52,4.52c0,2.5,2.02,4.52,4.52,4.52c2.35,0,4.26-1.8,4.48-4.1
							l7.38-5.63c3.24,3.53,7.2,6.38,11.68,8.27l-2.27,7.18c-4.33,0.3-7.75,3.87-7.75,8.27c0,4.6,3.73,8.33,8.33,8.33
							s8.33-3.73,8.33-8.33c0-2.61-1.22-4.91-3.1-6.43l2.28-7.2c2.31,0.5,4.69,0.78,7.15,0.78c3.88,0,7.59-0.69,11.05-1.91
							l3.32,7.28c-4.44,3.09-7.36,8.23-7.36,14.05c0,9.45,7.66,17.11,17.11,17.11c9.45,0,17.11-7.66,17.11-17.11
							c0-9.45-7.66-17.11-17.11-17.11c-1.46,0-2.86,0.2-4.21,0.54l-3.32-7.28c4.76-2.72,8.77-6.57,11.69-11.19l9.3,4.74
							c0.1,3.43,2.89,6.18,6.34,6.18c3.51,0,6.36-2.85,6.36-6.36c0-3.51-2.85-6.36-6.36-6.36c-1.33,0-2.57,0.41-3.59,1.11
							l-9.27-4.73c1.54-3.85,2.41-8.04,2.41-12.44c0-0.96-0.06-1.9-0.14-2.83l6.91-1.23c1.98,4.43,6.41,7.53,11.58,7.53
							c7,0,12.68-5.68,12.68-12.68c0-7-5.68-12.68-12.68-12.68c-6.72,0-12.2,5.23-12.64,11.84l-6.92,1.23
							c-1.87-6.84-5.82-12.81-11.17-17.16l3.85-5.74c1.17,0.39,2.41,0.62,3.71,0.62c6.42,0,11.63-5.21,11.63-11.63
							c0-6.42-5.21-11.63-11.63-11.63c-6.42,0-11.63,5.21-11.63,11.63c0,2.92,1.08,5.58,2.86,7.62l-3.84,5.73
							c-4.76-2.6-10.22-4.09-16.03-4.09c-0.7,0-1.39,0.06-2.08,0.1l-1.02-6.59c6.18-2.22,10.6-8.11,10.6-15.06
							c0-8.84-7.17-16.01-16.01-16.01S4.01,251.76,4.01,260.6z"/>
					</g>
				</g>
				<g class="st14">
					<g>
						<path class="st2" d="M660.52,19.23c-2.37,8.31,2.29,16.94,10.44,19.59l-0.83,6.62c-4.56-0.15-9.02,0.63-13.15,2.23l-4.19-8.46
							c0.44-0.61,0.81-1.29,1.02-2.05c1-3.5-1.03-7.14-4.53-8.13c-3.5-1-7.14,1.03-8.13,4.53c-1,3.5,1.03,7.14,4.53,8.13
							c0.55,0.16,1.1,0.21,1.65,0.23l4.19,8.46c-6.08,3.73-10.99,9.38-13.71,16.43l-5.71-1.63c0.01-4.86-3.18-9.33-8.08-10.73
							c-5.92-1.69-12.09,1.74-13.77,7.67c-1.69,5.92,1.74,12.09,7.67,13.77c4.9,1.4,9.97-0.72,12.52-4.86l5.71,1.63
							c-1.01,5.31-0.67,10.6,0.76,15.52l-8.62,3.38c-0.24-0.12-0.48-0.22-0.75-0.3c-2.4-0.68-4.9,0.71-5.58,3.11
							c-0.68,2.4,0.71,4.9,3.11,5.58c2.26,0.64,4.59-0.57,5.43-2.72l8.64-3.39c2.15,4.28,5.17,8.11,8.97,11.15l-4.15,6.28
							c-4.24-0.9-8.52,1.6-9.72,5.83c-1.26,4.42,1.3,9.03,5.73,10.29c4.42,1.26,9.03-1.3,10.29-5.73c0.71-2.51,0.17-5.05-1.22-7.04
							l4.16-6.3c2.08,1.11,4.3,2.04,6.66,2.71c3.73,1.06,7.49,1.41,11.15,1.2l1.2,7.91c-5.12,1.75-9.33,5.9-10.93,11.5
							c-2.59,9.09,2.68,18.56,11.77,21.15c9.09,2.59,18.56-2.68,21.15-11.77c2.59-9.09-2.68-18.56-11.77-21.15
							c-1.4-0.4-2.81-0.59-4.2-0.63l-1.2-7.91c5.32-1.32,10.23-3.92,14.31-7.56l7.64,7.11c-0.85,3.32,1.09,6.74,4.41,7.68
							c3.38,0.96,6.9-1,7.86-4.37c0.96-3.38-1-6.9-4.38-7.86c-1.28-0.37-2.58-0.31-3.76,0.09l-7.62-7.09
							c2.54-3.28,4.52-7.07,5.73-11.3c0.26-0.92,0.46-1.84,0.64-2.76l6.98,0.71c0.69,4.81,4.1,9,9.07,10.42
							c6.74,1.92,13.75-1.99,15.67-8.72c1.92-6.74-1.99-13.75-8.72-15.67c-6.46-1.84-13.17,1.68-15.4,7.92l-6.99-0.71
							c0.08-7.09-2.09-13.92-6.04-19.56l5.27-4.47c1.02,0.7,2.15,1.25,3.4,1.61c6.18,1.76,12.61-1.82,14.37-8
							c1.76-6.18-1.82-12.61-8-14.37c-6.18-1.76-12.61,1.82-14.37,8c-0.8,2.8-0.49,5.66,0.66,8.11l-5.27,4.46
							c-3.87-3.81-8.71-6.73-14.3-8.33c-0.68-0.19-1.35-0.32-2.03-0.47l0.83-6.62c6.55-0.44,12.42-4.9,14.33-11.58
							c2.42-8.51-2.51-17.37-11.01-19.79S662.94,10.72,660.52,19.23z"/>
					</g>
				</g>
				<g>
					<g>
						<path class="st1" d="M22.44,568.7c0,8.64,6.85,15.66,15.41,15.98l1.02,6.59c-4.43,1.1-8.5,3.08-12.04,5.75l-6.34-6.98
							c0.26-0.71,0.42-1.46,0.42-2.25c0-3.63-2.95-6.58-6.58-6.58c-3.63,0-6.58,2.95-6.58,6.58c0,3.63,2.95,6.58,6.58,6.58
							c0.57,0,1.12-0.1,1.65-0.23l6.35,6.99c-4.82,5.26-8,12.04-8.68,19.56H7.71c-1.33-4.67-5.62-8.1-10.71-8.1
							c-6.16,0-11.15,4.99-11.15,11.15c0,6.16,4.99,11.15,11.15,11.15c5.1,0,9.39-3.43,10.71-8.1h5.93
							c0.49,5.38,2.26,10.38,4.99,14.72l-7.36,5.61c-0.26-0.05-0.53-0.08-0.8-0.08c-2.5,0-4.52,2.02-4.52,4.52
							c0,2.5,2.02,4.52,4.52,4.52c2.35,0,4.26-1.8,4.48-4.1l7.38-5.63c3.24,3.53,7.2,6.38,11.68,8.27l-2.27,7.18
							c-4.33,0.3-7.75,3.87-7.75,8.27c0,4.6,3.73,8.33,8.33,8.33s8.33-3.73,8.33-8.33c0-2.61-1.22-4.91-3.1-6.43l2.28-7.2
							c2.31,0.5,4.69,0.78,7.15,0.78c3.88,0,7.59-0.69,11.05-1.91l3.32,7.28c-4.44,3.09-7.36,8.23-7.36,14.05
							c0,9.45,7.66,17.11,17.11,17.11c9.45,0,17.11-7.66,17.11-17.11c0-9.45-7.66-17.11-17.11-17.11c-1.46,0-2.86,0.2-4.21,0.54
							l-3.32-7.28c4.76-2.72,8.77-6.57,11.69-11.19l9.3,4.74c0.1,3.43,2.89,6.18,6.34,6.18c3.51,0,6.36-2.85,6.36-6.36
							s-2.85-6.36-6.36-6.36c-1.33,0-2.57,0.41-3.59,1.11l-9.27-4.73c1.54-3.85,2.41-8.04,2.41-12.44c0-0.96-0.06-1.9-0.14-2.83
							l6.91-1.23c1.98,4.43,6.41,7.53,11.58,7.53c7,0,12.68-5.68,12.68-12.68c0-7-5.68-12.68-12.68-12.68
							c-6.72,0-12.2,5.23-12.64,11.84l-6.92,1.23c-1.87-6.84-5.82-12.81-11.17-17.16l3.85-5.74c1.17,0.39,2.41,0.62,3.71,0.62
							c6.42,0,11.63-5.21,11.63-11.63c0-6.42-5.21-11.63-11.63-11.63c-6.42,0-11.63,5.21-11.63,11.63c0,2.92,1.08,5.58,2.86,7.62
							L63,594.33c-4.76-2.6-10.22-4.09-16.03-4.09c-0.7,0-1.39,0.06-2.08,0.1l-1.02-6.59c6.18-2.22,10.6-8.11,10.6-15.06
							c0-8.84-7.17-16.01-16.01-16.01S22.44,559.85,22.44,568.7z"/>
					</g>
				</g>
			</g>
		</g>
	</g>
</g>
</svg>
